<?xml version="1.0" encoding="UTF-8" standalone="no"?>
<!-- Created with Inkscape (http://www.inkscape.org/) -->

<svg
   width="8.2247314mm"
   height="12.699997mm"
   viewBox="0 0 8.2247314 12.699997"
   version="1.1"
   id="svg5"
   xml:space="preserve"
   xmlns:inkscape="http://www.inkscape.org/namespaces/inkscape"
   xmlns:sodipodi="http://sodipodi.sourceforge.net/DTD/sodipodi-0.dtd"
   xmlns="http://www.w3.org/2000/svg"
   xmlns:svg="http://www.w3.org/2000/svg"><sodipodi:namedview
     id="namedview7"
     pagecolor="#ffffff"
     bordercolor="#000000"
     borderopacity="0.25"
     inkscape:showpageshadow="2"
     inkscape:pageopacity="0.0"
     inkscape:pagecheckerboard="0"
     inkscape:deskcolor="#d1d1d1"
     inkscape:document-units="mm"
     showgrid="false" /><defs
     id="defs2" /><g
     inkscape:label="Camada 1"
     inkscape:groupmode="layer"
     id="layer1"
     transform="translate(-161.38648,-193.06649)"><g
       style="fill:#06f3af;fill-opacity:1"
       id="g191"
       transform="matrix(0.26458333,0,0,0.26458333,161.38648,193.06649)"
       inkscape:export-filename="g191.svg"
       inkscape:export-xdpi="96"
       inkscape:export-ydpi="96"><path
         fill-rule="evenodd"
         clip-rule="evenodd"
         d="m 23.3958,23.6529 c -0.0434,0.2782 -0.1492,0.543 -0.3095,0.7746 -0.1603,0.2315 -0.3709,0.4237 -0.616,0.5623 -0.4937,0.3188 -0.9256,0.4782 -1.3626,0.6376 -0.9307,0.3214 -1.9103,0.6428 -2.9464,1.0156 -1.0926,0.3727 -2.0722,0.7455 -2.9463,1.0155 -1.0901,0.3728 -2.1262,0.6941 -3.1109,1.0669 -0.7408,0.3171 -1.4367,0.7302 -2.0696,1.229 -0.58866,0.5333 -1.10238,1.1439 -1.52716,1.8151 -0.43707,0.7455 -0.71216,1.7071 -0.71216,2.828 0,2.2445 0.54504,3.9516 1.63771,5.0186 1.09011,1.1235 3.11091,1.6557 6.10601,1.6557 3.0544,0 5.1266,-0.5862 6.2218,-1.7611 1.0875,-1.175 1.6325,-2.8281 1.6325,-4.962 V 23.6529 Z M 15.5415,0 c 5.3476,0 9.2735,1.01553 11.7802,3.09802 2.5093,2.03106 3.7639,4.64317 3.7639,7.73858 v 26.3782 c 0,1.0669 -0.216,2.2419 -0.5965,3.5222 -0.3856,1.2855 -1.1466,2.4579 -2.3473,3.5222 -1.1441,1.0721 -2.7252,1.9797 -4.7434,2.6738 C 21.3802,47.6272 18.7629,48 15.5441,48 12.3304,48 9.70798,47.6272 7.69234,46.933 5.6767,46.2389 4.09298,45.3313 2.9489,44.2592 1.8846,43.3001 1.07834,42.089 0.604178,40.737 0.218532,39.4592 0,38.2843 0,37.2174 V 33.001 c 0,-2.2445 0.599036,-4.327 1.79968,-6.1447 1.20064,-1.8665 2.88977,-3.1468 5.07252,-3.949 1.09009,-0.3728 2.34473,-0.7455 3.7613,-1.2263 1.4192,-0.4834 2.7253,-0.9641 4.0364,-1.3883 1.3112,-0.4294 2.4553,-0.8587 3.4349,-1.2341 0.5911,-0.2365 1.1915,-0.4492 1.7996,-0.6376 l 0.9822,-0.4808 c 0.3856,-0.2134 0.7635,-0.5347 1.1466,-0.9615 0.3805,-0.4242 0.707,-0.905 0.9821,-1.4398 0.2907,-0.579 0.4404,-1.2186 0.4371,-1.8665 V 11.9627 C 23.4564,11.3361 23.3249,10.716 23.0667,10.145 22.8508,9.5023 22.4137,8.91612 21.8147,8.38393 21.2156,7.84917 20.3955,7.42239 19.416,7.09845 18.4338,6.78222 17.1278,6.62025 15.6521,6.62025 c -3.0544,0 -5.0726,0.59132 -6.16265,1.8151 -0.92555,1.06953 -1.4706,2.40385 -1.57858,3.89755 0,0.3214 -0.27252,0.5348 -0.6016,0.5348 l -6.651102,0.108 C 0.500177,12.9764 0.348309,12.9146 0.235632,12.8039 0.122956,12.6931 0.0585941,12.5423 0.0565613,12.3844 v -1.5426 c 0,-1.4989 0.2750937,-2.88722 0.8741297,-4.22155 C 1.5323,5.28334 2.46042,4.16497 3.71248,3.20086 4.96711,2.24189 6.60482,1.44231 8.56647,0.907552 10.4767,0.26481 12.8214,0 15.5467,0 Z"
         fill="#0a3871"
         id="path182"
         style="fill:#06f3af;fill-opacity:1" /></g></g></svg>
