<?xml version="1.0" encoding="UTF-8" standalone="no"?>
<!-- Created with Inkscape (http://www.inkscape.org/) -->

<svg
   width="8.4666748mm"
   height="8.4666748mm"
   viewBox="0 0 8.4666748 8.4666748"
   version="1.1"
   id="svg5"
   xml:space="preserve"
   xmlns:inkscape="http://www.inkscape.org/namespaces/inkscape"
   xmlns:sodipodi="http://sodipodi.sourceforge.net/DTD/sodipodi-0.dtd"
   xmlns:xlink="http://www.w3.org/1999/xlink"
   xmlns="http://www.w3.org/2000/svg"
   xmlns:svg="http://www.w3.org/2000/svg"><sodipodi:namedview
     id="namedview7"
     pagecolor="#ffffff"
     bordercolor="#000000"
     borderopacity="0.25"
     inkscape:showpageshadow="2"
     inkscape:pageopacity="0.0"
     inkscape:pagecheckerboard="0"
     inkscape:deskcolor="#d1d1d1"
     inkscape:document-units="mm"
     showgrid="false" /><defs
     id="defs2"><linearGradient
       inkscape:collect="always"
       id="linearGradient52475"><stop
         style="stop-color:#0c73a1;stop-opacity:1"
         offset="0"
         id="stop52471" /><stop
         style="stop-color:#06eeaf;stop-opacity:1"
         offset="1"
         id="stop52473" /></linearGradient><linearGradient
       inkscape:collect="always"
       id="linearGradient31925"><stop
         style="stop-color:#06f4af;stop-opacity:1"
         offset="0"
         id="stop31921" /><stop
         style="stop-color:#0c679f;stop-opacity:1"
         offset="1"
         id="stop31923" /></linearGradient><linearGradient
       inkscape:collect="always"
       xlink:href="#linearGradient31925"
       id="linearGradient52469"
       gradientUnits="userSpaceOnUse"
       gradientTransform="matrix(0.17636228,0,0,0.17636228,-518.84103,-77.915132)"
       x1="-637.30579"
       y1="-576.93671"
       x2="-601.03412"
       y2="-541.80219" /><linearGradient
       inkscape:collect="always"
       xlink:href="#linearGradient52475"
       id="linearGradient52477"
       x1="-633.83209"
       y1="-165.42461"
       x2="-630.38049"
       y2="-162.41631"
       gradientUnits="userSpaceOnUse"
       gradientTransform="translate(-0.62466176,-5.4187644)" /></defs><g
     inkscape:label="Camada 1"
     inkscape:groupmode="layer"
     id="layer1"
     transform="translate(632.19325,180.90518)"><circle
       style="fill:url(#linearGradient52469);fill-opacity:1;stroke-width:0.176363;stroke-linecap:round;stroke-linejoin:round;stroke-miterlimit:0.6"
       id="circle52447"
       cx="-627.9599"
       cy="-176.67184"
       r="4.2333331" /><g
       id="g58696"
       transform="translate(4.8132733,-7.1565774)"><circle
         style="fill:#0c6da0;fill-opacity:1;stroke-width:2.33577;stroke-linecap:round;stroke-linejoin:round;stroke-miterlimit:0.6"
         id="path56742"
         cx="-632.77319"
         cy="-169.43599"
         r="2.2489583" /><path
         style="fill:url(#linearGradient52477);fill-opacity:1;stroke-width:0.0108099"
         d="m -633.56282,-167.29931 c -0.13533,-0.0511 -0.31789,-0.14677 -0.44653,-0.23407 -0.54169,-0.36761 -0.88932,-0.92257 -0.9938,-1.58651 -0.0255,-0.16183 -0.0253,-0.5195 3.4e-4,-0.67943 0.0921,-0.57448 0.3637,-1.07101 0.77916,-1.42427 0.60515,-0.51457 1.40431,-0.67341 2.14573,-0.42649 1.04672,0.34861 1.69359,1.42222 1.5279,2.53585 -0.11123,0.74764 -0.58079,1.40017 -1.24267,1.7269 -0.14362,0.0709 -0.27314,0.12102 -0.31274,0.12102 -0.0423,0 -0.0783,-0.0226 -0.0959,-0.0603 -0.014,-0.03 -0.0166,-0.0958 -0.0168,-0.42066 -1.2e-4,-0.30161 -0.004,-0.39995 -0.016,-0.45355 -0.0181,-0.0781 -0.048,-0.14258 -0.0926,-0.20023 l -0.0309,-0.0399 0.0457,-0.007 c 0.36379,-0.0562 0.59534,-0.16737 0.75306,-0.36159 0.143,-0.17609 0.22023,-0.43763 0.22038,-0.74633 1.2e-4,-0.24604 -0.0642,-0.44706 -0.19159,-0.59898 l -0.0361,-0.0431 0.0179,-0.0647 c 0.0392,-0.14199 0.0293,-0.35225 -0.0235,-0.4971 -0.018,-0.0493 -0.0219,-0.0529 -0.0607,-0.0562 -0.1021,-0.009 -0.30874,0.0683 -0.48695,0.18108 l -0.0892,0.0565 -0.13068,-0.0267 c -0.31214,-0.0638 -0.61806,-0.0598 -0.9246,0.012 l -0.0753,0.0177 -0.0785,-0.0516 c -0.16493,-0.10837 -0.37746,-0.19092 -0.49155,-0.19092 -0.0526,0 -0.0552,0.004 -0.0857,0.12413 -0.0356,0.14038 -0.0358,0.34357 -3.5e-4,0.44705 l 0.0146,0.0428 -0.0514,0.069 c -0.14413,0.19341 -0.19986,0.42892 -0.17139,0.72425 0.0559,0.57988 0.35198,0.87714 0.95813,0.96196 l 0.0505,0.007 -0.036,0.0511 c -0.043,0.0612 -0.0672,0.11742 -0.0851,0.19823 l -0.0133,0.0599 -0.0691,0.0238 c -0.13934,0.0481 -0.2664,0.0439 -0.38014,-0.0125 -0.0692,-0.0343 -0.1314,-0.0956 -0.19685,-0.19402 -0.0947,-0.14242 -0.20793,-0.22704 -0.32557,-0.24342 -0.0539,-0.007 -0.12132,0.01 -0.13031,0.0338 -0.008,0.0224 0.0299,0.066 0.10168,0.11548 0.081,0.0559 0.14905,0.14295 0.20363,0.26055 0.0236,0.0509 0.0487,0.10486 0.0558,0.11984 0.0214,0.0456 0.12869,0.14834 0.18543,0.17754 0.10264,0.0528 0.17066,0.0671 0.31537,0.0663 0.0738,-3.5e-4 0.15435,-0.006 0.17913,-0.0121 0.0248,-0.006 0.0477,-0.009 0.051,-0.005 0.003,0.003 0.006,0.10371 0.006,0.22314 0,0.23706 -0.008,0.27652 -0.06,0.30065 -0.0406,0.0188 -0.0767,0.0144 -0.16941,-0.0206 z"
         id="path52441" /></g></g></svg>
