<?xml version="1.0" encoding="UTF-8" standalone="no"?>
<!-- Created with Inkscape (http://www.inkscape.org/) -->

<svg
   width="33.866669mm"
   height="33.866653mm"
   viewBox="0 0 33.866669 33.866653"
   version="1.1"
   id="svg5"
   xml:space="preserve"
   xmlns:inkscape="http://www.inkscape.org/namespaces/inkscape"
   xmlns:sodipodi="http://sodipodi.sourceforge.net/DTD/sodipodi-0.dtd"
   xmlns="http://www.w3.org/2000/svg"
   xmlns:svg="http://www.w3.org/2000/svg"><sodipodi:namedview
     id="namedview7"
     pagecolor="#ffffff"
     bordercolor="#000000"
     borderopacity="0.25"
     inkscape:showpageshadow="2"
     inkscape:pageopacity="0.0"
     inkscape:pagecheckerboard="0"
     inkscape:deskcolor="#d1d1d1"
     inkscape:document-units="mm"
     showgrid="false" /><defs
     id="defs2" /><g
     inkscape:label="Camada 1"
     inkscape:groupmode="layer"
     id="layer1"
     transform="translate(2.6028169,-46.120955)"><path
       style="fill:#ffffff;stroke-width:0.0670841"
       d="m 9.0276463,79.969708 c -0.32216,-0.0644 -1.700895,-0.65156 -2.477255,-1.05514 -4.072477,-2.11704 -7.28945895,-6.13365 -8.548042,-10.67276 -0.436276,-1.57347 -0.603576,-2.89628 -0.605144,-4.78485 -0.0014,-1.54999 0.06268,-2.24096 0.33204,-3.58648 1.254111,-6.26497 6.004208,-11.44316 12.05402,-13.14034 3.4573497,-0.96987 7.4122037,-0.77336 10.6692457,0.53021 3.966517,1.58751 7.157852,4.56518 9.066898,8.45992 0.872316,1.77962 1.400172,3.56384 1.666431,5.63269 0.10456,0.81231 0.10384,3.35597 -0.0011,4.20796 -0.331679,2.69133 -1.200903,5.14415 -2.59357,7.31891 -2.010659,3.13982 -4.737841,5.42962 -8.059207,6.7667 -1.02478,0.41254 -1.391647,0.43678 -1.708247,0.11279 l -0.21464,-0.21958 -0.04016,-3.06995 c -0.043,-3.28586 -0.0596,-3.45789 -0.411524,-4.2668 -0.08716,-0.20039 -0.28044,-0.52125 -0.429531,-0.71328 l -0.27108,-0.34918 0.543007,-0.078 c 1.735871,-0.24878 3.088131,-0.73564 4.254898,-1.53227 1.418919,-0.96879 2.293218,-2.4723 2.722834,-4.68234 0.14136,-0.72724 0.2024,-2.7688 0.10236,-3.42313 -0.1706,-1.11557 -0.709807,-2.35255 -1.385643,-3.17878 l -0.26624,-0.32558 0.163,-0.57457 c 0.2894,-1.02014 0.21224,-2.45066 -0.1948,-3.61252 -0.12916,-0.36878 -0.1708,-0.42209 -0.36996,-0.47465 -0.616163,-0.16239 -2.36481,0.49341 -3.880869,1.45588 -0.37768,0.23959 -0.579812,0.32838 -0.69946,0.30718 -0.09256,-0.016 -0.470804,-0.0952 -0.840547,-0.17519 -2.114967,-0.45625 -4.431014,-0.45625 -6.545984,0 -0.36976,0.08 -0.749768,0.15879 -0.8445,0.17559 -0.12416,0.024 -0.3035597,-0.0556 -0.6426747,-0.27798 -1.351988,-0.88703 -3.26623,-1.60423 -3.969858,-1.48736 -0.21368,0.036 -0.229,0.0588 -0.38724,0.58989 -0.25664,0.86119 -0.32164,1.30144 -0.31656,2.14396 0.0038,0.62552 0.0376,0.89415 0.17084,1.35296 l 0.16616,0.57249 -0.25524,0.30998 c -0.669699,0.81296 -1.225451,2.08681 -1.395487,3.19862 -0.1002,0.65525 -0.0388,2.69725 0.10272,3.42245 0.33968,1.73922 0.998604,3.12283 1.917159,4.02566 0.690416,0.6786 1.803823,1.33724 2.892686,1.71114 0.473244,0.16239 1.7390267,0.43721 2.3352827,0.50685 l 0.37924,0.0444 -0.2582,0.33438 c -0.33544,0.43442 -0.577844,0.96591 -0.706556,1.54931 -0.10076,0.4567 -0.11032,0.47118 -0.3795197,0.57321 -0.593635,0.22519 -0.904023,0.27479 -1.734907,0.27878 -0.851203,0.003 -0.867603,9.6e-4 -1.310731,-0.22638 -0.573855,-0.29479 -1.070115,-0.78492 -1.524403,-1.50564 -0.658027,-1.04394 -1.657683,-1.77942 -2.54239,-1.87053 -0.508996,-0.0524 -0.888468,0.0596 -0.888468,0.26278 0,0.15439 0.532748,0.70656 1.002144,1.03838 0.15996,0.1132 0.449023,0.4185 0.642355,0.67869 0.31532,0.42437 0.474208,0.7238 1.056124,1.99012 0.318999,0.69421 1.120723,1.33329 2.007158,1.59999 0.2006,0.0604 0.78242,0.144 1.292984,0.18599 0.758427,0.0624 1.046599,0.0584 1.574787,-0.02 l 0.6464907,-0.0976 0.0164,1.19081 c 0.0328,2.39399 0.0184,2.52226 -0.3117197,2.74361 -0.174519,0.11719 -0.529475,0.17759 -0.765515,0.13039 z"
       id="path302" /></g></svg>
