<?xml version="1.0" encoding="UTF-8" standalone="no"?>
<!-- Created with Inkscape (http://www.inkscape.org/) -->

<svg
   width="4.2333374mm"
   height="4.2333374mm"
   viewBox="0 0 4.2333374 4.2333374"
   version="1.1"
   id="svg5"
   xml:space="preserve"
   xmlns:inkscape="http://www.inkscape.org/namespaces/inkscape"
   xmlns:sodipodi="http://sodipodi.sourceforge.net/DTD/sodipodi-0.dtd"
   xmlns="http://www.w3.org/2000/svg"
   xmlns:svg="http://www.w3.org/2000/svg"><sodipodi:namedview
     id="namedview7"
     pagecolor="#ffffff"
     bordercolor="#000000"
     borderopacity="0.25"
     inkscape:showpageshadow="2"
     inkscape:pageopacity="0.0"
     inkscape:pagecheckerboard="0"
     inkscape:deskcolor="#d1d1d1"
     inkscape:document-units="mm"
     showgrid="false" /><defs
     id="defs2" /><g
     inkscape:label="Camada 1"
     inkscape:groupmode="layer"
     id="layer1"
     transform="translate(-150.13477,-157.22802)"><g
       style="fill:#06f3af;fill-opacity:1"
       id="g6108"
       transform="matrix(0.26458333,0,0,0.26458333,150.13477,157.22801)"><path
         d="m 16,8 c 0,2.1217 -0.8429,4.1566 -2.3431,5.6569 C 12.1566,15.1571 10.1217,16 8,16 5.87827,16 3.84344,15.1571 2.34315,13.6569 0.842855,12.1566 0,10.1217 0,8 0,5.87827 0.842855,3.84344 2.34315,2.34315 3.84344,0.842855 5.87827,0 8,0 10.1217,0 12.1566,0.842855 13.6569,2.34315 15.1571,3.84344 16,5.87827 16,8 Z M 8,4 C 7.87361,4.00007 7.74863,4.02662 7.63312,4.07793 7.51761,4.12924 7.41413,4.20418 7.32934,4.29791 7.24456,4.39165 7.18035,4.5021 7.14084,4.62217 7.10134,4.74223 7.08743,4.86923 7.1,4.995 L 7.45,8.502 C 7.46176,8.63977 7.5248,8.76811 7.62664,8.86164 7.72849,8.95516 7.86173,9.00705 8,9.00705 8.13827,9.00705 8.27151,8.95516 8.37336,8.86164 8.4752,8.76811 8.53824,8.63977 8.55,8.502 L 8.9,4.995 C 8.91257,4.86923 8.89866,4.74223 8.85915,4.62217 8.81965,4.5021 8.75544,4.39165 8.67066,4.29791 8.58587,4.20418 8.48239,4.12924 8.36688,4.07793 8.25137,4.02662 8.12639,4.00007 8,4 Z m 0.002,6 C 7.73678,10 7.48243,10.1054 7.29489,10.2929 7.10736,10.4804 7.002,10.7348 7.002,11 c 0,0.2652 0.10536,0.5196 0.29289,0.7071 C 7.48243,11.8946 7.73678,12 8.002,12 8.26722,12 8.52157,11.8946 8.70911,11.7071 8.89664,11.5196 9.002,11.2652 9.002,11 9.002,10.7348 8.89664,10.4804 8.70911,10.2929 8.52157,10.1054 8.26722,10 8.002,10 Z"
         fill="#495057"
         id="path6099"
         style="fill:#06f3af;fill-opacity:1" /></g></g></svg>
