<?xml version="1.0" encoding="UTF-8" standalone="no"?>
<!-- Created with Inkscape (http://www.inkscape.org/) -->

<svg
   width="88.883453mm"
   height="80.387146mm"
   viewBox="0 0 88.883453 80.387146"
   version="1.1"
   id="svg5"
   xml:space="preserve"
   xmlns="http://www.w3.org/2000/svg"
   xmlns:svg="http://www.w3.org/2000/svg"><defs
     id="defs2"><clipPath
       id="clip0_2_1323"><rect
         width="336"
         height="304"
         fill="#ffffff"
         id="rect1141"
         x="0"
         y="0" /></clipPath></defs><g
     id="layer1"
     transform="translate(-207.34906,-95.865934)"><g
       style="fill:none"
       id="g1283"
       transform="matrix(0.26458333,0,0,0.26458333,207.33253,95.819746)"><g
         clip-path="url(#clip0_2_1323)"
         id="g1139"><g
           id="g3336"><path
             d="M 0.675649,249.836 C 3.6088,248.4 4.854,244.589 8.03619,243.595 c 3.26521,-1.021 6.89011,0.994 9.87861,-1.215 1.3005,-0.966 2.269,-2.568 3.8463,-3.148 1.3836,-0.497 2.8225,0.055 4.1507,0.47 1.1345,0.359 2.269,0.69 3.4035,1.049 4.5658,1.408 9.1039,2.789 13.6696,4.197 5.1745,1.574 10.3214,3.176 15.4959,4.75 0.4981,0.166 0.7194,-0.635 0.2213,-0.801 -9.4635,-2.899 -18.8994,-5.799 -28.3629,-8.698 -2.2137,-0.663 -4.5104,-1.685 -6.8071,-1.961 -1.605,-0.193 -2.8778,0.442 -4.0124,1.491 -1.5772,1.464 -2.7671,2.817 -5.0638,2.927 -1.9093,0.111 -3.791,-0.386 -5.70027,-0.082 -3.92931,0.607 -5.14684,4.887 -8.467381,6.517 -0.498081,0.276 -0.083011,0.994 0.3874,0.745 z"
             fill="#e8e8e8"
             id="path879"
             style="fill:#070f1d;fill-opacity:1" /><path
             d="m 50.4007,246.357 c 1.9647,0.497 3.5143,-1.464 5.2852,-2.044 2.3797,-0.801 4.9255,-0.469 7.0838,0.773 0.4705,0.276 0.8855,-0.442 0.4151,-0.718 -1.8263,-1.077 -3.9016,-1.518 -6.0046,-1.242 -0.9132,0.11 -1.771,0.359 -2.6011,0.718 -1.1899,0.524 -2.5734,2.043 -3.957,1.712 -0.5258,-0.138 -0.7471,0.663 -0.2214,0.801 z"
             fill="#e8e8e8"
             id="path881"
             style="fill:#070f1d;fill-opacity:1" /><path
             d="m 71.7353,244.286 c -1.854,-1.519 -3.625,-3.148 -5.2852,-4.888 -0.7748,-0.801 -1.5219,-1.657 -2.2414,-2.513 -0.4151,-0.497 -0.8301,-0.994 -1.2175,-1.491 -0.2767,-0.359 -0.5535,-0.718 -0.8025,-1.077 -0.4427,-0.442 -0.4427,-0.994 0.0277,-1.602 0.332,0.138 0.8578,-0.193 0.5811,-0.58 -1.688,-2.264 -2.9332,-4.749 -3.7356,-7.456 -0.1661,0.166 -0.3321,0.332 -0.4981,0.497 0.9131,0.249 1.5772,0.718 2.0753,1.492 0.2767,0.441 0.9962,0.055 0.7195,-0.415 -4.123,-7.124 -7.4989,-14.635 -10.0447,-22.45 -0.2213,0.138 -0.4704,0.276 -0.6918,0.414 11.5943,11.377 16.8518,27.2 26.6197,39.931 0.3321,0.414 1.0515,0 0.7195,-0.415 -9.7956,-12.785 -15.1085,-28.663 -26.7581,-40.096 -0.2767,-0.276 -0.8301,0 -0.6917,0.414 2.5734,7.898 5.9493,15.465 10.1276,22.644 0.2491,-0.138 0.4704,-0.276 0.7195,-0.414 -0.6365,-0.966 -1.4666,-1.602 -2.5734,-1.878 -0.3044,-0.083 -0.6088,0.194 -0.4981,0.497 0.8301,2.762 2.103,5.33 3.8186,7.65 0.1937,-0.194 0.3874,-0.387 0.5811,-0.58 -0.7748,-0.359 -1.6326,0 -1.8263,0.911 -0.249,1.298 1.3282,2.734 2.0477,3.645 2.4627,3.065 5.2575,5.854 8.3013,8.339 0.3597,0.332 0.9408,-0.248 0.5258,-0.579 z"
             fill="#e8e8e8"
             id="path883"
             style="fill:#070f1d;fill-opacity:1" /><path
             d="m 68.8297,227.027 c -5.0915,-7.594 -9.2145,-15.741 -12.2583,-24.356 -0.083,0.165 -0.1937,0.331 -0.2767,0.497 0.9408,-0.221 1.7433,0.138 2.269,0.966 0.2767,0.47 0.9408,0.056 0.7195,-0.414 -4.2891,-9.251 -8.6611,-18.888 -8.3567,-29.299 -0.2491,0.083 -0.5258,0.138 -0.7748,0.221 7.3882,15.188 14.4167,30.569 21.0578,46.089 0.1937,0.441 0.9131,0.11 0.7471,-0.332 -1.1069,-3.314 -2.186,-6.655 -3.2929,-9.969 -0.5257,-1.629 -1.0792,-3.23 -1.6049,-4.86 -0.3597,-1.077 -1.1345,-3.424 0.4151,-4.004 -0.1661,-0.055 -0.3044,-0.138 -0.4705,-0.193 1.9924,3.893 3.957,7.787 5.9493,11.681 0.2491,0.469 0.9686,0.055 0.7195,-0.414 -2.1583,-4.225 -3.1545,-8.892 -2.9608,-13.642 -0.2767,0.028 -0.5534,0.083 -0.8025,0.11 5.7556,14.277 12.4244,28.195 19.9233,41.643 0.249,0.469 0.9685,0.055 0.7194,-0.414 -7.4712,-13.393 -14.1123,-27.228 -19.8402,-41.449 -0.166,-0.415 -0.8025,-0.387 -0.8025,0.11 -0.1937,4.888 0.8578,9.665 3.0715,14.056 0.2491,-0.138 0.4704,-0.276 0.7195,-0.414 -1.9924,-3.894 -3.957,-7.788 -5.9493,-11.681 -0.083,-0.138 -0.3044,-0.249 -0.4704,-0.194 -2.7672,1.022 -0.9962,4.971 -0.3874,6.821 1.4389,4.336 2.8501,8.699 4.289,13.034 0.249,-0.11 0.4981,-0.221 0.7471,-0.331 -6.6411,-15.52 -13.6696,-30.901 -21.0578,-46.089 -0.1937,-0.386 -0.7748,-0.165 -0.7748,0.221 -0.332,10.549 4.123,20.352 8.4674,29.713 0.2491,-0.138 0.4704,-0.276 0.7195,-0.414 -0.7195,-1.132 -1.8817,-1.629 -3.2099,-1.353 -0.2214,0.055 -0.3597,0.304 -0.2767,0.497 3.0715,8.671 7.2222,16.9 12.3414,24.549 0.2767,0.47 0.9961,0.055 0.6917,-0.386 z"
             fill="#e8e8e8"
             id="path885"
             style="fill:#070f1d;fill-opacity:1" /><path
             d="m 14.1515,280.405 c 9.5742,-4.611 19.6742,-9.306 30.6043,-8.201 5.1745,0.524 10.183,2.016 15.3298,2.678 2.6011,0.332 5.2299,0.47 7.831,0.166 2.4351,-0.304 4.7318,-1.187 7.1115,-1.712 3.0715,-0.69 5.8663,0.028 8.8271,0.856 2.4351,0.663 4.8425,1.215 7.3605,0.635 0.5258,-0.11 0.3044,-0.911 -0.2213,-0.801 -5.0362,1.188 -9.768,-2.43 -14.8595,-1.712 -2.518,0.359 -4.8701,1.353 -7.3605,1.795 -2.6288,0.442 -5.3129,0.387 -7.9693,0.055 -5.2299,-0.607 -10.3214,-2.154 -15.5789,-2.733 -5.1745,-0.58 -10.2937,0.082 -15.2468,1.518 -5.6449,1.657 -10.9855,4.198 -16.243,6.738 -0.4981,0.221 -0.0553,0.939 0.4151,0.718 z"
             fill="#e8e8e8"
             id="path887"
             style="fill:#070f1d;fill-opacity:1" /><path
             d="m 70.3241,303.297 c 3.2375,-1.38 6.4197,-2.899 9.4912,-4.611 1.6049,-0.911 3.1822,-1.85 4.7594,-2.844 1.4113,-0.912 2.8225,-2.21 4.3721,-2.872 1.7433,-0.718 4.372,0.635 6.1153,1.16 1.854,0.579 3.708,1.132 5.5339,1.712 3.791,1.159 7.582,2.319 11.346,3.479 0.498,0.166 0.719,-0.635 0.221,-0.801 -4.04,-1.242 -8.108,-2.485 -12.148,-3.728 -1.9367,-0.607 -3.8737,-1.187 -5.8107,-1.795 -1.4942,-0.469 -3.3759,-1.436 -4.9531,-1.049 -1.4666,0.359 -2.7948,1.629 -4.04,2.458 -1.605,1.049 -3.2652,2.071 -4.9255,3.037 -3.3482,1.906 -6.8071,3.618 -10.3767,5.109 -0.4981,0.221 -0.0553,0.939 0.4151,0.745 z"
             fill="#e8e8e8"
             id="path889"
             style="fill:#070f1d;fill-opacity:1" /><path
             d="m 104.747,304.154 c 2.103,-1.05 4.206,-2.127 6.309,-3.176 1.937,-0.994 4.012,-2.32 6.226,-2.513 2.241,-0.221 3.985,1.243 5.922,2.099 1.632,0.718 3.403,1.132 5.174,1.242 4.151,0.221 8.025,-1.85 12.148,-1.629 3.293,0.193 6.613,2.9 9.851,1.188 0.47,-0.249 0.055,-0.967 -0.415,-0.718 -2.02,1.077 -4.206,0.027 -6.199,-0.608 -1.715,-0.552 -3.376,-0.801 -5.174,-0.607 -4.262,0.441 -8.163,2.236 -12.535,1.215 -3.625,-0.829 -6.392,-3.839 -10.294,-2.707 -1.799,0.525 -3.486,1.519 -5.147,2.348 -2.103,1.049 -4.206,2.126 -6.309,3.175 -0.442,0.221 -0.027,0.939 0.443,0.691 z"
             fill="#e8e8e8"
             id="path891"
             style="fill:#070f1d;fill-opacity:1" /><path
             d="m 120.907,298.161 c -1.716,-1.491 -3.265,-3.148 -4.538,-5.053 -0.581,-0.856 -1.107,-1.768 -1.605,-2.679 -0.249,-0.469 -0.47,-0.939 -0.664,-1.408 -0.166,-0.387 -0.332,-0.746 -0.471,-1.132 -0.249,-0.415 -0.138,-0.801 0.333,-1.16 0.249,-0.111 0.498,-0.221 0.747,-0.332 -3.044,-4.473 -4.953,-9.554 -5.59,-14.911 -0.249,0.11 -0.47,0.193 -0.719,0.304 0.498,0.635 0.996,1.27 1.522,1.933 0.304,0.386 0.885,-0.111 0.664,-0.498 -4.815,-8.588 -7.389,-18.253 -7.444,-28.083 -0.249,0.11 -0.47,0.193 -0.719,0.303 1.881,1.519 3.32,3.397 4.206,5.634 0.249,-0.111 0.498,-0.221 0.747,-0.332 -2.159,-4.556 -2.601,-9.692 -1.328,-14.552 -0.277,0 -0.526,0 -0.803,0 5.673,16.209 11.318,32.391 16.99,48.601 0.166,0.497 0.969,0.276 0.803,-0.221 -2.85,-8.312 -4.262,-17.038 -4.179,-25.847 -0.249,0.11 -0.47,0.193 -0.719,0.304 1.688,1.518 2.739,3.424 3.127,5.661 0.083,0.469 0.83,0.359 0.802,-0.111 -0.083,-1.684 -0.193,-3.396 -0.276,-5.081 -0.222,0.111 -0.416,0.249 -0.637,0.359 1.467,0.939 1.743,3.424 2.214,4.971 0.498,1.657 0.996,3.313 1.522,4.998 1.024,3.424 2.075,6.821 3.099,10.245 2.075,6.821 4.151,13.669 6.226,20.49 0.166,0.497 0.968,0.303 0.802,-0.221 -2.241,-7.346 -4.455,-14.719 -6.696,-22.064 -1.079,-3.59 -2.186,-7.18 -3.265,-10.77 -0.554,-1.85 -1.107,-3.672 -1.661,-5.523 -0.359,-1.132 -0.774,-2.154 -1.798,-2.816 -0.249,-0.166 -0.637,0.055 -0.637,0.359 0.083,1.684 0.194,3.396 0.277,5.081 0.277,-0.028 0.554,-0.083 0.803,-0.111 -0.388,-2.375 -1.55,-4.446 -3.349,-6.047 -0.276,-0.249 -0.691,-0.083 -0.719,0.303 -0.083,8.865 1.328,17.674 4.206,26.068 0.277,-0.082 0.526,-0.138 0.802,-0.22 -5.672,-16.21 -11.317,-32.392 -16.99,-48.602 -0.138,-0.359 -0.692,-0.414 -0.802,0 -1.328,5.109 -0.83,10.438 1.411,15.188 0.194,0.414 0.941,0.111 0.747,-0.331 -0.941,-2.375 -2.407,-4.391 -4.427,-5.993 -0.277,-0.22 -0.72,-0.082 -0.72,0.304 0.056,9.969 2.657,19.8 7.555,28.498 0.221,-0.165 0.442,-0.331 0.664,-0.497 -0.498,-0.635 -0.997,-1.27 -1.522,-1.933 -0.222,-0.276 -0.747,-0.055 -0.72,0.304 0.637,5.523 2.574,10.742 5.701,15.326 0.276,0.387 0.83,0.138 0.747,-0.331 -0.139,-0.774 -1.052,-1.05 -1.688,-0.58 -1.162,0.828 -0.028,2.789 0.387,3.728 1.577,3.507 3.929,6.572 6.835,9.085 0.581,0.303 1.162,-0.276 0.747,-0.608 z"
             fill="#e8e8e8"
             id="path893"
             style="fill:#070f1d;fill-opacity:1" /><path
             d="m 91.9629,236.222 c -0.3598,-5.191 9.0761,-2.209 11.7051,-1.712 4.316,0.801 8.606,1.602 12.922,2.403 8.606,1.601 17.239,3.203 25.845,4.805 0.526,0.11 0.747,-0.691 0.221,-0.801 -9.878,-1.85 -19.729,-3.673 -29.608,-5.523 -4.842,-0.911 -9.685,-1.823 -14.5271,-2.706 -1.7432,-0.332 -3.7632,-0.691 -5.3958,0.221 -1.2453,0.662 -2.0754,1.877 -1.9647,3.313 0,0.525 0.8578,0.525 0.8025,0 z"
             fill="#e8e8e8"
             id="path895"
             style="fill:#070f1d;fill-opacity:1" /><path
             d="m 136.707,240.806 c 2.878,0.304 4.649,-2.43 6.89,-3.755 1.91,-1.105 3.57,-0.249 5.535,0.138 2.186,0.442 4.427,0.497 6.641,0.221 0.525,-0.056 0.525,-0.884 0,-0.829 -2.491,0.304 -4.981,0.194 -7.416,-0.414 -1.467,-0.387 -2.795,-0.856 -4.261,-0.276 -2.602,0.994 -4.373,4.418 -7.389,4.087 -0.525,-0.055 -0.525,0.773 0,0.828 z"
             fill="#e8e8e8"
             id="path897"
             style="fill:#070f1d;fill-opacity:1" /><path
             d="m 189.476,293.909 c 6.641,-2.32 13.338,-4.64 20.2,-6.297 7.167,-1.712 14.389,-2.402 21.75,-2.181 7.277,0.221 14.499,1.049 21.749,1.712 7.278,0.69 14.555,1.353 21.833,2.044 8.357,0.773 16.741,1.546 25.098,2.347 0.525,0.055 0.525,-0.773 0,-0.829 -14.915,-1.38 -29.83,-2.761 -44.772,-4.169 -14.362,-1.326 -28.806,-3.287 -43.112,-0.332 -7.859,1.629 -15.441,4.28 -22.995,6.904 -0.47,0.165 -0.249,0.966 0.249,0.801 z"
             fill="#e8e8e8"
             id="path899"
             style="fill:#070f1d;fill-opacity:1" /><path
             d="m 218.725,266.736 c 4.953,-1.049 9.601,-3.12 14.278,-4.998 5.008,-1.988 10.072,-3.369 15.44,-3.838 5.424,-0.47 10.875,-0.194 16.271,0.138 5.424,0.331 10.847,0.718 16.298,1.104 6.337,0.47 12.702,0.994 19.038,1.547 0.526,0.055 0.526,-0.774 0,-0.829 -11.234,-0.994 -22.469,-1.85 -33.731,-2.568 -10.709,-0.69 -21.251,-0.966 -31.462,2.817 -5.424,2.016 -10.681,4.584 -16.381,5.799 -0.471,0.138 -0.277,0.939 0.249,0.828 z"
             fill="#e8e8e8"
             id="path901"
             style="fill:#070f1d;fill-opacity:1" /><path
             d="m 282.507,234.897 c 3.957,-3.01 8.135,-5.965 12.562,-8.229 2.159,-1.105 4.483,-1.989 6.918,-2.182 2.629,-0.221 5.258,0.304 7.831,0.635 5.23,0.635 10.488,1.022 15.745,1.353 3.487,0.221 7.914,0.718 10.377,-2.319 0.332,-0.415 -0.249,-0.994 -0.581,-0.58 -2.795,3.452 -8.689,2.154 -12.508,1.905 -5.257,-0.359 -10.459,-0.856 -15.689,-1.519 -2.242,-0.276 -4.455,-0.497 -6.697,-0.082 -2.213,0.386 -4.289,1.27 -6.253,2.319 -4.262,2.264 -8.302,5.081 -12.148,8.008 -0.387,0.304 0.028,1.022 0.443,0.691 z"
             fill="#e8e8e8"
             id="path903"
             style="fill:#070f1d;fill-opacity:1" /><path
             d="m 130.177,230.34 c 3.929,-2.954 7.886,-5.882 11.815,-8.836 3.764,-2.817 7.278,-5.772 12.203,-6.02 4.649,-0.221 9.409,0.304 14.03,0.69 4.981,0.414 9.934,0.967 14.859,1.657 4.151,0.58 9.104,2.126 13.033,-0.028 0.471,-0.248 0.056,-0.966 -0.415,-0.718 -2.02,1.105 -4.261,1.105 -6.502,0.829 -2.408,-0.304 -4.815,-0.718 -7.223,-1.05 -4.648,-0.635 -9.325,-1.159 -14.029,-1.546 -4.621,-0.387 -9.408,-0.939 -14.029,-0.663 -4.289,0.249 -7.471,2.458 -10.82,4.971 -4.455,3.314 -8.882,6.655 -13.337,9.969 -0.415,0.359 0,1.077 0.415,0.745 z"
             fill="#e8e8e8"
             id="path905"
             style="fill:#070f1d;fill-opacity:1" /><path
             d="m 285.855,259.529 c 0.249,-1.823 0.609,-3.59 1.135,-5.357 0.249,-0.829 0.498,-1.657 0.83,-2.486 0.193,-0.497 0.719,-1.325 1.439,-1.132 0.359,0.111 0.525,1.353 0.553,1.602 0.055,0.442 0.664,0.58 0.802,0.11 1.301,-4.225 2.795,-8.864 6.78,-11.322 -0.221,-0.11 -0.415,-0.248 -0.637,-0.359 0,0.691 -0.027,1.409 -0.027,2.099 0,0.387 0.581,0.58 0.775,0.221 2.462,-5.109 5.146,-10.466 10.127,-13.559 -0.193,-0.165 -0.415,-0.303 -0.609,-0.469 -2.49,6.434 -5.395,12.702 -8.688,18.778 -0.222,0.386 0.332,0.883 0.664,0.497 1.854,-2.209 3.735,-4.419 6.171,-6.02 -0.194,-0.194 -0.388,-0.387 -0.582,-0.58 -3.071,6.462 -6.419,12.758 -10.1,18.888 -0.276,0.469 0.443,0.884 0.72,0.414 3.652,-6.13 7.028,-12.426 10.1,-18.888 0.166,-0.331 -0.194,-0.828 -0.581,-0.58 -2.491,1.657 -4.428,3.894 -6.337,6.158 0.221,0.166 0.443,0.332 0.664,0.497 3.321,-6.13 6.254,-12.454 8.772,-18.971 0.138,-0.331 -0.332,-0.635 -0.609,-0.469 -5.119,3.175 -7.886,8.615 -10.432,13.862 0.249,0.083 0.526,0.138 0.775,0.221 0,-0.69 0.028,-1.408 0.028,-2.099 0,-0.303 -0.36,-0.524 -0.637,-0.359 -4.15,2.568 -5.783,7.373 -7.139,11.819 0.277,0.028 0.553,0.083 0.802,0.111 -0.138,-1.409 -1.411,-3.811 -2.96,-2.016 -0.775,0.911 -1.08,2.402 -1.412,3.535 -0.553,1.822 -0.94,3.7 -1.217,5.605 -0.028,0.553 0.747,0.773 0.83,0.249 z"
             fill="#e8e8e8"
             id="path907"
             style="fill:#070f1d;fill-opacity:1" /><path
             d="m 92.5164,212.916 c 2.1583,-1.16 4.3444,-2.32 6.7241,-2.955 2.5185,-0.663 5.0085,-0.442 7.5265,-0.11 5.009,0.662 10.017,1.325 14.998,1.988 0.526,0.083 0.526,-0.746 0,-0.829 -5.341,-0.718 -10.709,-1.491 -16.049,-2.126 -2.463,-0.304 -4.815,-0.304 -7.195,0.387 -2.269,0.662 -4.372,1.795 -6.4473,2.899 -0.4705,0.304 -0.0277,0.994 0.4427,0.746 z"
             fill="#e8e8e8"
             id="path909"
             style="fill:#070f1d;fill-opacity:1" /><path
             d="m 260.84,25.6074 c 1.993,-1.6844 4.787,-1.3531 6.973,-0.2761 1.661,0.8008 3.017,2.4301 4.954,2.5129 1.798,0.0552 3.292,-1.1598 4.814,-1.9606 1.024,-0.5247 2.076,-0.8837 3.238,-0.6352 1.245,0.2486 2.324,0.9665 3.459,1.4636 3.735,1.6293 6.226,-0.6351 9.38,-2.4301 0.886,-0.497 1.827,-0.9388 2.85,-1.0217 1.301,-0.1104 2.463,0.4695 3.625,0.9665 1.827,0.7732 3.21,1.077 5.064,0.3314 1.909,-0.7456 3.459,-0.6351 5.368,0.0552 1.218,0.4418 2.38,0.9941 3.653,1.2703 1.909,0.4418 3.957,0.3313 5.396,-1.1322 0.387,-0.3866 -0.222,-0.9665 -0.581,-0.5799 -1.854,1.8778 -4.677,0.9941 -6.807,0.1657 -2.159,-0.8285 -4.372,-1.7121 -6.669,-0.8561 -1.439,0.5523 -2.408,0.9389 -3.957,0.4142 -1.052,-0.3589 -2.02,-0.9388 -3.099,-1.2426 -1.633,-0.4971 -3.155,-0.2209 -4.649,0.5247 -1.716,0.856 -3.21,2.2091 -5.009,2.9271 -2.379,0.9389 -4.233,-0.3038 -6.392,-1.215 -1.577,-0.6628 -3.071,-0.7732 -4.648,-0.0829 -1.91,0.8561 -3.764,2.7338 -6.005,1.933 -1.19,-0.4142 -2.131,-1.3807 -3.21,-1.9882 -0.913,-0.4971 -1.909,-0.8561 -2.933,-1.0494 -1.965,-0.3589 -3.874,-0.0276 -5.424,1.2703 -0.387,0.4142 0.222,0.9941 0.609,0.6351 z"
             fill="#e8e8e8"
             id="path911"
             style="fill:#070f1d;fill-opacity:1" /><path
             d="m 270.802,44.468 c 0.526,0 0.526,-0.8285 0,-0.8285 -0.526,0 -0.526,0.8285 0,0.8285 z"
             fill="#e8e8e8"
             id="path913" /><path
             d="m 276.336,47.478 c 1.301,-2.3473 4.372,-1.2151 6.281,-0.4419 1.91,0.7732 3.625,1.2427 5.645,0.5523 1.661,-0.5799 3.155,-1.6845 4.87,-2.0711 2.38,-0.5522 3.736,1.4636 5.894,1.9331 3.376,0.7455 6.78,-3.01 9.962,-1.436 0.886,0.4418 1.494,1.0217 2.546,0.9389 0.968,-0.0552 1.854,-0.5247 2.795,-0.7456 2.628,-0.6075 5.368,-0.1381 7.72,1.1598 0.47,0.2485 0.885,-0.4694 0.415,-0.718 -1.494,-0.8284 -3.099,-1.3255 -4.787,-1.4911 -0.858,-0.0829 -1.743,-0.0553 -2.601,0.0828 -1.024,0.1381 -1.965,0.5799 -2.961,0.7732 -1.356,0.2485 -1.937,-0.4142 -3.044,-0.8837 -0.553,-0.2209 -1.162,-0.3313 -1.743,-0.3037 -1.384,0.0552 -2.712,0.6351 -3.985,1.1046 -1.632,0.6075 -3.376,1.1874 -5.036,0.3589 -1.411,-0.6903 -2.518,-1.7397 -4.178,-1.7397 -3.432,0.0277 -5.839,3.3138 -9.464,2.3197 -2.684,-0.7456 -7.001,-3.369 -8.993,0.1656 -0.304,0.4971 0.415,0.9113 0.664,0.4419 z"
             fill="#e8e8e8"
             id="path915"
             style="fill:#070f1d;fill-opacity:1" /><path
             d="m 249.495,80.5323 c 1.965,-1.5464 4.206,-1.4635 6.364,-0.4694 1.19,0.5523 2.463,1.077 3.708,0.3314 0.72,-0.4419 1.19,-1.1322 2.048,-1.3807 0.913,-0.2762 1.882,-0.0829 2.767,0.138 1.577,0.3866 3.099,1.077 4.732,1.1874 1.937,0.1381 3.708,-0.6903 5.59,-0.8836 2.02,-0.1933 3.431,1.0217 5.312,1.2978 1.827,0.2486 3.238,-1.215 5.064,-0.9388 2.214,0.3313 4.4,1.0769 6.586,1.6292 0.526,0.1381 0.747,-0.6627 0.221,-0.8008 -2.296,-0.5799 -4.676,-1.4636 -7.028,-1.7121 -1.992,-0.2209 -3.431,1.4083 -5.424,0.8008 -1.854,-0.5523 -3.182,-1.3531 -5.174,-1.0769 -2.131,0.3037 -4.068,1.1321 -6.254,0.6627 -1.688,-0.359 -3.32,-1.1598 -5.064,-1.2702 -0.636,-0.0277 -1.3,0.0276 -1.909,0.2761 -0.775,0.3038 -1.19,0.9389 -1.909,1.3531 -1.661,0.9665 -3.902,-1.077 -5.673,-1.215 -1.688,-0.1381 -3.237,0.4418 -4.566,1.4635 -0.415,0.359 0.194,0.9389 0.609,0.6075 z"
             fill="#e8e8e8"
             id="path917"
             style="fill:#070f1d;fill-opacity:1" /><path
             d="m 90.8561,20.2779 c 0.5258,0 0.5258,-0.8284 0,-0.8284 -0.5258,0 -0.5258,0.8284 0,0.8284 z"
             fill="#e8e8e8"
             id="path919" /><path
             d="m 93.2911,20.913 c 0.4981,-2.4577 3.7633,-0.8837 4.9531,-0.1381 1.3559,0.856 2.7948,1.6292 4.4548,1.1598 1.799,-0.5247 3.016,-2.0711 5.009,-2.1815 1.881,-0.0829 3.708,0.7732 5.479,1.3254 1.522,0.4695 3.127,0.8009 4.704,0.4143 1.854,-0.4419 3.431,-1.7397 5.313,-2.0711 3.708,-0.6352 7.056,2.3748 10.819,1.215 0.498,-0.1657 0.304,-0.9665 -0.221,-0.8008 -3.93,1.2426 -7.665,-2.2368 -11.65,-0.9941 -2.048,0.6351 -3.763,2.0711 -6.005,1.9882 -2.075,-0.0828 -3.956,-1.0769 -5.921,-1.574 -1.55,-0.3866 -3.127,-0.4971 -4.621,0.1933 -0.858,0.3866 -1.605,1.0217 -2.463,1.4359 -1.411,0.6628 -2.601,0.2762 -3.8739,-0.4418 -1.3836,-0.8008 -2.5735,-1.7397 -4.2614,-1.6016 -1.1899,0.0828 -2.2414,0.6903 -2.4628,1.9054 -0.1383,0.4694 0.6642,0.6903 0.7472,0.1657 z"
             fill="#e8e8e8"
             id="path921"
             style="fill:#070f1d;fill-opacity:1" /><path
             d="m 95.8093,182.153 c 3.2928,-1.38 6.6137,1.077 9.9337,1.243 1.716,0.083 3.376,-0.331 5.064,-0.663 2.131,-0.414 3.957,-0.442 6.005,0.414 1.245,0.525 2.379,0.856 3.652,0.359 0.72,-0.276 1.329,-0.745 2.048,-0.994 0.802,-0.276 1.633,-0.331 2.49,-0.331 2.961,0.055 5.922,1.077 8.744,-0.249 0.471,-0.221 0.056,-0.938 -0.415,-0.718 -3.016,1.409 -6.364,-0.138 -9.546,0.194 -1.522,0.165 -2.518,1.049 -3.929,1.463 -1.688,0.497 -3.349,-0.939 -5.009,-1.187 -3.57,-0.552 -6.945,1.436 -10.543,0.718 -2.877,-0.58 -5.783,-2.265 -8.7161,-1.022 -0.4704,0.193 -0.249,0.994 0.2214,0.773 z"
             fill="#e8e8e8"
             id="path923"
             style="fill:#070f1d;fill-opacity:1" /><path
             d="m 35.9841,141.477 c 2.4146,0 4.3721,-1.953 4.3721,-4.363 0,-2.409 -1.9575,-4.363 -4.3721,-4.363 -2.4146,0 -4.372,1.954 -4.372,4.363 0,2.41 1.9574,4.363 4.372,4.363 z"
             fill="#0a3871"
             id="path925"
             style="fill:#070f1d;fill-opacity:1" /><path
             d="m 290.476,111.488 c 1.696,0 3.072,-1.372 3.072,-3.065 0,-1.693 -1.376,-3.065 -3.072,-3.065 -1.696,0 -3.071,1.372 -3.071,3.065 0,1.693 1.375,3.065 3.071,3.065 z"
             fill="#0a3871"
             id="path927"
             style="fill:#070f1d;fill-opacity:1" /><path
             d="m 262.833,4.70331 c 1.253,0 2.269,-1.01379 2.269,-2.26437 0,-1.25058 -1.016,-2.264379 -2.269,-2.264379 -1.254,0 -2.269,1.013799 -2.269,2.264379 0,1.25058 1.015,2.26437 2.269,2.26437 z"
             fill="#0a3871"
             id="path929"
             style="fill:#070f1d;fill-opacity:1" /><path
             d="m 162.884,201.069 c 1.559,0 2.823,-1.261 2.823,-2.817 0,-1.555 -1.264,-2.816 -2.823,-2.816 -1.559,0 -2.822,1.261 -2.822,2.816 0,1.556 1.263,2.817 2.822,2.817 z"
             fill="#0a3871"
             id="path931"
             style="fill:#070f1d;fill-opacity:1" /><path
             d="m 32.7742,41.0991 c 1.788,0 3.2375,-1.4465 3.2375,-3.2309 0,-1.7844 -1.4495,-3.2309 -3.2375,-3.2309 -1.7881,0 -3.2376,1.4465 -3.2376,3.2309 0,1.7844 1.4495,3.2309 3.2376,3.2309 z"
             fill="#0a3871"
             id="path933"
             style="fill:#070f1d;fill-opacity:1" /><path
             d="m 144.4,154.456 c 1.024,0 1.854,-0.828 1.854,-1.85 0,-1.022 -0.83,-1.85 -1.854,-1.85 -1.024,0 -1.854,0.828 -1.854,1.85 0,1.022 0.83,1.85 1.854,1.85 z"
             fill="#0a3871"
             id="path935"
             style="fill:#070f1d;fill-opacity:1" /><path
             d="m 319.392,170.196 c 1.559,0 2.823,-1.261 2.823,-2.816 0,-1.556 -1.264,-2.817 -2.823,-2.817 -1.558,0 -2.822,1.261 -2.822,2.817 0,1.555 1.264,2.816 2.822,2.816 z"
             fill="#0a3871"
             id="path937"
             style="fill:#070f1d;fill-opacity:1" /><path
             d="m 11.7441,216.754 c 1.1615,0 2.103,-0.94 2.103,-2.099 0,-1.159 -0.9415,-2.098 -2.103,-2.098 -1.1614,0 -2.10299,0.939 -2.10299,2.098 0,1.159 0.94159,2.099 2.10299,2.099 z"
             fill="#0a3871"
             id="path939"
             style="fill:#070f1d;fill-opacity:1" /><path
             d="m 97.7461,53.6636 c -2.4074,4.8878 -4.8425,9.7755 -7.2499,14.6633 9.9618,13.3377 19.9228,26.6478 29.8848,39.9851 2.574,-3.893 5.119,-7.87 7.693,-11.8737 6.06,-9.4994 11.843,-18.8882 17.377,-28.1943 -1.881,-4.7773 -3.791,-9.5822 -5.672,-14.3594 -1.218,-0.6352 -2.435,-1.2427 -3.653,-1.8778 -11.788,0.0276 -23.576,0.0552 -35.336,0.0828 -1.0516,0.5523 -2.0478,1.077 -3.0439,1.574 z"
             fill="#ffffff"
             id="path941" /><path
             d="m 90.8283,68.5478 c 2.103,-4.6116 4.2614,-9.1956 6.4751,-13.7519 0.2213,-0.4695 -0.4705,-0.9113 -0.7195,-0.4143 -2.2137,4.5564 -4.3721,9.1404 -6.4751,13.752 -0.2214,0.4694 0.4981,0.9113 0.7195,0.4142 z"
             fill="#000000"
             id="path943" /><path
             d="m 90.2748,69.0448 c 9.7402,13.3378 19.6742,26.5098 29.8022,39.5712 0.332,0.414 0.913,-0.165 0.581,-0.58 C 110.585,95.03 100.707,81.9131 90.9943,68.6306 c -0.3044,-0.4142 -1.0238,0 -0.7195,0.4142 z"
             fill="#000000"
             id="path945" /><path
             d="m 97.4971,54.3264 c 1.1621,-0.6075 2.2967,-1.2427 3.4589,-1.8502 0.47,-0.2485 0.055,-0.9665 -0.415,-0.7179 -1.1623,0.6075 -2.2968,1.2426 -3.459,1.8501 -0.4981,0.2762 -0.0554,0.9665 0.4151,0.718 z"
             fill="#000000"
             id="path947" /><path
             d="m 101.648,52.5314 c 8.633,0 17.294,0 25.928,0 0.525,0 0.525,-0.8284 0,-0.8284 -8.634,0 -17.295,0 -25.928,0 -0.526,0 -0.526,0.8284 0,0.8284 z"
             fill="#000000"
             id="path949" /><path
             d="m 145.839,68.1611 c -1.744,-4.6115 -3.542,-9.1679 -5.396,-13.7519 -0.194,-0.497 -0.996,-0.2761 -0.803,0.2209 1.854,4.5564 3.653,9.1404 5.396,13.752 0.194,0.497 0.996,0.2761 0.803,-0.221 z"
             fill="#000000"
             id="path951" /><path
             d="m 144.925,68.5754 c -8.107,13.2549 -16.381,26.427 -24.821,39.4886 -0.304,0.442 0.415,0.856 0.72,0.414 8.44,-13.0614 16.713,-26.2059 24.821,-39.4884 0.277,-0.4418 -0.443,-0.8836 -0.72,-0.4142 z"
             fill="#000000"
             id="path953" /><path
             d="m 139.945,53.5533 c -0.969,-0.6076 -1.937,-1.2427 -2.906,-1.8502 -0.443,-0.2762 -0.858,0.4142 -0.415,0.718 0.969,0.6075 1.937,1.2426 2.906,1.8501 0.47,0.3038 0.885,-0.4142 0.415,-0.7179 z"
             fill="#000000"
             id="path955" /><path
             d="m 136.098,51.6202 c -7.222,0 -14.444,0 -21.639,0 -0.525,0 -0.525,0.8285 0,0.8285 7.223,0 14.445,0 21.639,0 0.526,0 0.526,-0.8285 0,-0.8285 z"
             fill="#000000"
             id="path957" /><path
             d="m 91.1605,68.962 c 4.9531,-2.1263 9.9065,-4.2526 14.8595,-6.3789 0.498,-0.2209 0.055,-0.9113 -0.415,-0.718 -4.953,2.1263 -9.9065,4.2526 -14.8596,6.3789 -0.4704,0.221 -0.0554,0.9389 0.4151,0.718 z"
             fill="#000000"
             id="path959" /><path
             d="m 97.6354,54.0779 c 3.0436,0.4694 6.0326,1.1322 8.9926,1.9606 0.526,0.1381 0.748,-0.6627 0.222,-0.8008 -2.961,-0.8561 -5.949,-1.4912 -8.9933,-1.9606 -0.5257,-0.0829 -0.7748,0.7179 -0.2213,0.8008 z"
             fill="#000000"
             id="path961" /><path
             d="m 106.407,55.9005 c 0.664,2.0711 1.245,4.1421 1.743,6.2684 0.111,0.5247 0.914,0.3038 0.803,-0.2209 -0.498,-2.1263 -1.079,-4.1974 -1.743,-6.2684 -0.166,-0.4971 -0.969,-0.3038 -0.803,0.2209 z"
             fill="#000000"
             id="path963" /><path
             d="m 107.68,55.9833 c 7.416,0 14.804,0 22.22,0 0.526,0 0.526,-0.8285 0,-0.8285 -7.416,0 -14.804,0 -22.22,0 -0.526,0 -0.526,0.8285 0,0.8285 z"
             fill="#000000"
             id="path965" /><path
             d="m 129.54,56.149 c -0.276,1.5188 -0.553,3.0652 -0.83,4.584 -0.083,0.5247 0.72,0.7456 0.803,0.2209 0.276,-1.5188 0.553,-3.0652 0.83,-4.584 0.083,-0.5247 -0.72,-0.7456 -0.803,-0.2209 z"
             fill="#000000"
             id="path967" /><path
             d="m 108.593,62.2241 c 6.475,0 12.95,0 19.453,0 0.526,0 0.526,-0.8285 0,-0.8285 -6.475,0 -12.95,0 -19.453,0 -0.526,0 -0.526,0.8285 0,0.8285 z"
             fill="#000000"
             id="path969" /><path
             d="m 130.703,55.9833 c 3.016,-0.6351 6.004,-1.2703 9.02,-1.9054 0.526,-0.1104 0.305,-0.9113 -0.221,-0.8008 -3.016,0.6351 -6.005,1.2703 -9.021,1.9054 -0.526,0.1104 -0.304,0.9113 0.222,0.8008 z"
             fill="#000000"
             id="path971" /><path
             d="m 129.319,61.9756 c 2.795,0.4418 5.396,2.0158 7.942,3.2032 2.711,1.2703 5.395,2.5406 8.107,3.8108 0.471,0.2209 0.913,-0.497 0.415,-0.718 -2.877,-1.3531 -5.728,-2.6785 -8.605,-4.0316 -2.435,-1.1598 -4.954,-2.6234 -7.638,-3.0652 -0.525,-0.0829 -0.747,0.7179 -0.221,0.8008 z"
             fill="#000000"
             id="path973" /><path
             d="m 108.842,63.4944 c 3.598,14.8013 7.167,29.6302 10.764,44.4316 0.139,0.525 0.913,0.304 0.803,-0.221 -3.597,-14.8013 -7.167,-29.6302 -10.764,-44.4315 -0.139,-0.5247 -0.941,-0.3038 -0.803,0.2209 z"
             fill="#000000"
             id="path975" /><path
             d="m 128.157,64.4885 c -3.376,14.249 -6.171,28.6637 -8.329,43.1615 -0.083,0.524 0.719,0.745 0.802,0.221 2.158,-14.4979 4.953,-28.885 8.329,-43.1616 0.139,-0.5247 -0.664,-0.7456 -0.802,-0.2209 z"
             fill="#000000"
             id="path977" /><path
             d="m 128.433,36.8466 c 1.246,-3.1757 1.937,-6.517 2.048,-9.9412 0.028,-0.5247 -0.802,-0.5247 -0.83,0 -0.111,3.3413 -0.802,6.5998 -2.02,9.7203 -0.194,0.497 0.609,0.6903 0.802,0.2209 z"
             fill="#000000"
             id="path979" /><path
             d="m 134.106,37.3988 c 2.656,-3.01 5.645,-5.661 8.993,-7.8977 0.443,-0.3038 0.028,-1.0217 -0.415,-0.718 -3.403,2.2644 -6.475,4.9706 -9.159,8.0358 -0.36,0.3866 0.221,0.9665 0.581,0.5799 z"
             fill="#000000"
             id="path981" /><path
             d="m 139.557,42.5075 c 3.432,-1.0217 6.973,-1.4083 10.543,-1.1322 0.526,0.0276 0.526,-0.8008 0,-0.8284 -3.653,-0.2762 -7.25,0.1104 -10.764,1.1598 -0.498,0.1657 -0.304,0.9665 0.221,0.8008 z"
             fill="#000000"
             id="path983" /><path
             d="m 81.2541,23.1498 c 0.332,5.4676 -2.7395,10.6868 -7.665,13.0616 -0.2767,0.1381 -0.249,0.5523 0,0.718 4.5104,2.7062 6.5858,7.6768 7.7757,12.5645 0.1383,0.5247 0.9131,0.3038 0.8024,-0.2209 -1.2452,-5.1087 -3.4589,-10.2726 -8.163,-13.0616 0,0.2485 0,0.4694 0,0.718 5.1745,-2.5129 8.4397,-8.0634 8.08,-13.7796 -0.0277,-0.5247 -0.8578,-0.5247 -0.8301,0 z"
             fill="#e8e8e8"
             id="path985"
             style="fill:#070f1d;fill-opacity:1" /><path
             d="m 81.5584,23.1498 c -0.3597,5.7438 2.9055,11.2943 8.08,13.7796 0,-0.2486 0,-0.4695 0,-0.718 -4.7318,2.8166 -6.9455,7.9805 -8.1907,13.1168 -0.1383,0.5247 0.6641,0.7456 0.8025,0.2209 1.1899,-4.9153 3.2652,-9.9135 7.8033,-12.6197 0.249,-0.1381 0.2767,-0.5799 0,-0.718 -4.9255,-2.3749 -8.0247,-7.594 -7.6926,-13.0616 0.0553,-0.5247 -0.7748,-0.5247 -0.8025,0 z"
             fill="#e8e8e8"
             id="path987"
             style="fill:#070f1d;fill-opacity:1" /><path
             d="m 216.29,230.451 c 0.968,-0.414 2.296,-1.022 3.818,-1.878 2.546,-1.408 3.819,-2.126 4.594,-3.258 0.996,-1.492 0.608,-2.292 1.909,-3.784 0.194,-0.248 1.107,-1.215 2.297,-1.739 2.047,-0.856 3.957,0.165 7.139,1.298 2.933,1.049 5.23,1.546 9.823,2.568 1.826,0.414 4.04,0.828 7.25,1.822 0.913,0.276 1.633,0.525 2.131,0.691 0.055,0.58 0.083,2.071 -0.886,3.424 -0.443,0.607 -1.051,1.104 -2.02,1.546 -2.241,1.05 -4.372,0.856 -6.171,0.773 -3.874,-0.165 -2.269,0.387 -11.4,0.553 -1.992,0.027 -3.625,0.027 -4.76,0.027 -1.411,0.967 -2.822,1.961 -4.261,2.983 -2.435,1.767 -4.759,3.534 -6.973,5.274 -0.83,-3.424 -1.66,-6.876 -2.49,-10.3 z"
             fill="#000000"
             id="path989" /><path
             d="m 204.751,195.105 c -1.993,1.049 -2.214,1.435 -9.63,7.732 -11.566,9.803 -12.839,10.327 -23.327,19.468 -10.044,8.726 -11.926,10.907 -13.835,13.779 -4.76,7.263 -5.811,13.338 -6.116,16.293 -0.415,3.976 -0.968,9.499 2.546,13.862 2.214,2.734 5.092,3.866 6.06,4.225 2.906,1.105 5.285,0.967 9.574,0.663 5.701,-0.414 10.045,-1.519 11.761,-1.988 1.881,-0.525 6.253,-1.823 11.732,-4.529 5.147,-2.541 7.361,-4.418 14.389,-9.14 3.127,-2.099 7.748,-5.164 13.559,-8.699 0.36,-2.761 0.056,-4.915 -0.249,-6.268 -0.719,-3.204 -2.186,-5.413 -3.818,-7.843 -1.329,-1.988 -2.602,-3.507 -3.487,-4.501 2.075,-1.574 4.787,-3.838 7.637,-6.876 1.91,-2.044 4.926,-5.302 7.444,-9.886 3.099,-5.633 6.198,-11.322 4.206,-15.243 -3.127,-6.158 -18.014,-6.434 -28.446,-1.049 z"
             fill="#ffffff"
             id="path991" /><path
             opacity="0.18"
             d="m 229.544,198.115 c -1.577,3.645 -4.178,8.808 -8.329,14.331 -6.032,7.981 -12.12,12.399 -21.307,18.944 -25.983,18.501 -32.956,22.726 -32.181,24.494 1.051,2.402 15.689,-1.906 17.82,-2.541 15.551,-4.584 27.007,-11.653 34.174,-16.817 -1.826,-2.789 -3.653,-5.578 -5.479,-8.339 2.241,-1.602 5.341,-4.143 8.246,-7.926 1.605,-2.071 4.04,-5.274 5.617,-10.107 1.605,-4.805 1.661,-9.085 1.439,-12.039 z"
             fill="#9b9797"
             id="path993" /><path
             d="m 204.64,195.077 c -9.851,7.318 -19.453,14.995 -28.695,23.03 -4.427,3.839 -8.855,7.677 -13.005,11.792 -3.681,3.645 -7.112,7.677 -9.187,12.481 -2.159,4.971 -2.767,10.715 -2.242,16.1 0.443,4.446 2.076,8.919 6.143,11.239 4.262,2.402 9.63,2.154 14.334,1.657 5.783,-0.58 11.484,-1.989 16.879,-4.17 12.037,-4.888 21.473,-14.028 32.846,-20.076 0.471,-0.248 0.056,-0.966 -0.415,-0.718 -9.491,5.054 -17.571,12.344 -27.09,17.397 -4.981,2.651 -10.349,4.584 -15.883,5.772 -5.119,1.077 -10.875,1.905 -16.077,0.911 -2.435,-0.47 -4.787,-1.464 -6.531,-3.286 -1.688,-1.795 -2.601,-4.142 -3.071,-6.545 -1.024,-5.219 -0.554,-11.128 1.162,-16.154 1.716,-5.026 5.064,-9.251 8.716,-13.007 3.791,-3.893 7.942,-7.483 12.01,-11.045 9.823,-8.616 20.006,-16.845 30.521,-24.632 0.415,-0.332 0.028,-1.05 -0.415,-0.746 z"
             fill="#000000"
             id="path995" /><path
             d="m 177.522,251.686 c 9.076,-3.507 17.295,-8.753 25.098,-14.497 3.846,-2.817 7.637,-5.744 11.401,-8.671 3.708,-2.9 7.249,-5.965 10.127,-9.693 0.332,-0.414 -0.387,-0.828 -0.719,-0.414 -2.933,3.811 -6.614,6.876 -10.377,9.831 -3.708,2.899 -7.443,5.771 -11.262,8.56 -7.637,5.578 -15.634,10.715 -24.489,14.111 -0.498,0.166 -0.277,0.967 0.221,0.773 z"
             fill="#000000"
             id="path997" /><path
             d="m 213.606,228.435 c 5.34,4.474 8.163,11.405 7.415,18.336 -0.055,0.525 0.775,0.525 0.831,0 0.747,-7.124 -2.186,-14.304 -7.665,-18.916 -0.388,-0.359 -0.969,0.221 -0.581,0.58 z"
             fill="#000000"
             id="path999" /><path
             d="m 220.966,239.067 c 1.577,-0.47 2.961,-1.795 4.289,-2.734 1.66,-1.16 3.293,-2.32 4.953,-3.48 0.443,-0.303 0.028,-1.021 -0.415,-0.718 -1.494,1.05 -3.016,2.127 -4.51,3.176 -1.384,0.967 -2.906,2.458 -4.538,2.955 -0.526,0.138 -0.305,0.939 0.221,0.801 z"
             fill="#000000"
             id="path1001" /><path
             d="m 216.4,230.837 c 3.127,-1.297 6.005,-3.065 8.606,-5.246 0.415,-0.359 -0.194,-0.939 -0.581,-0.58 -2.463,2.099 -5.23,3.783 -8.218,5.026 -0.499,0.221 -0.277,1.021 0.193,0.8 z"
             fill="#000000"
             id="path1003" /><path
             d="m 224.702,225.232 c 0.525,0 0.525,-0.829 0,-0.829 -0.526,0 -0.526,0.829 0,0.829 z"
             fill="#000000"
             id="path1005" /><path
             d="m 225.698,224.238 c 0.47,-1.105 0.968,-2.32 1.854,-3.176 1.19,-1.16 2.629,-0.994 4.15,-0.663 2.823,0.635 5.59,1.519 8.357,2.32 2.574,0.718 5.147,1.353 7.803,1.657 1.55,0.165 2.851,0.359 4.234,1.049 1.024,0.497 1.909,0.994 3.044,1.105 0.526,0.055 0.526,-0.773 0,-0.829 -1.522,-0.138 -2.712,-1.187 -4.151,-1.657 -1.439,-0.469 -3.044,-0.441 -4.538,-0.69 -3.265,-0.525 -6.447,-1.519 -9.602,-2.458 -1.549,-0.441 -3.099,-0.883 -4.676,-1.242 -1.162,-0.249 -2.38,-0.553 -3.542,-0.194 -2.02,0.608 -2.989,2.762 -3.736,4.557 -0.193,0.497 0.609,0.718 0.803,0.221 z"
             fill="#000000"
             id="path1007" /><path
             d="m 230.098,233.461 c 5.921,-0.884 11.787,-1.022 17.764,-1.132 2.076,-0.028 4.289,-0.276 5.95,-1.63 1.411,-1.159 2.213,-2.844 1.826,-4.639 -0.111,-0.524 -0.913,-0.304 -0.802,0.221 0.525,2.513 -1.744,4.363 -3.985,4.916 -2.297,0.552 -4.787,0.276 -7.139,0.331 -4.649,0.083 -9.242,0.469 -13.836,1.16 -0.526,0.055 -0.277,0.856 0.222,0.773 z"
             fill="#000000"
             id="path1009" /><path
             d="m 251.1,227.965 c 2.048,-1.463 4.123,-2.927 6.171,-4.39 0.138,-0.939 0.581,-2.983 2.269,-4.722 0.498,-0.525 1.66,-1.74 3.403,-2.071 1.827,-0.359 3.238,0.469 4.815,1.187 2.546,1.16 5.008,1.602 9.879,2.541 3.846,0.718 5.783,1.077 8.55,0.938 3.763,-0.22 6.447,-1.215 8.052,0.359 0.166,0.166 0.858,0.912 0.803,1.823 -0.083,1.16 -1.328,1.905 -2.325,2.485 -4.344,2.486 -6.779,3.204 -6.779,3.204 -6.143,1.794 -9.242,2.706 -11.899,2.927 -2.158,0.165 -5.23,0.248 -8.937,-0.332 -1.08,3.701 -4.345,6.075 -7.416,5.882 -3.957,-0.248 -7.61,-4.694 -6.586,-9.831 z"
             fill="#000000"
             id="path1011"
             style="fill:#070f1d;fill-opacity:1" /><path
             d="m 211.364,203.554 c 0.609,-1.85 1.743,-4.197 3.874,-4.97 1.384,-0.497 2.656,-0.166 3.072,-0.055 2.573,0.635 7.858,-0.277 18.401,-2.072 5.23,-0.883 11.843,-2.181 19.453,-4.114 0.027,1.408 0,3.258 -0.083,5.412 -0.194,4.833 -0.692,8.478 -0.803,9.334 -0.47,3.424 -1.3,9.113 -3.818,16.016 -0.637,1.768 -1.273,3.231 -1.716,4.225 1.079,0.497 2.241,1.16 3.376,2.099 4.676,3.728 6.032,9.002 6.475,11.239 -0.664,0.801 -1.66,1.988 -2.933,3.341 -5.147,5.468 -9.906,8.533 -18.983,14.139 -5.589,3.452 -9.685,5.965 -16.243,9.831 -7.969,4.694 -14.416,8.339 -22.441,10.631 -1.992,0.58 -5.147,1.353 -9.131,0.939 -1.937,-0.193 -5.424,-0.552 -8.772,-2.982 -4.289,-3.093 -5.645,-7.622 -6.199,-9.61 -1.245,-4.446 -0.774,-8.616 0.388,-12.951 0.802,-3.038 3.708,-13.117 13.808,-24.467 2.02,-2.264 7.775,-7.373 19.231,-17.59 2.767,-2.458 5.036,-4.473 6.558,-5.799 -1.162,-0.884 -2.324,-1.74 -3.514,-2.596 z"
             fill="#ffffff"
             id="path1013" /><path
             opacity="0.18"
             d="m 248.997,195.905 c -0.637,2.43 -1.66,5.937 -3.21,10.052 -14.14,37.39 -45.741,53.544 -43.167,57.576 1.882,2.982 19.923,-4.446 32.929,-12.261 9.74,-5.854 16.99,-12.123 21.832,-16.845 -0.775,-1.132 -1.964,-2.678 -3.763,-4.142 -1.743,-1.408 -3.404,-2.264 -4.649,-2.789 0.858,-1.243 1.993,-3.12 2.961,-5.523 0.636,-1.546 1.19,-3.203 1.909,-6.572 1.163,-5.33 1.633,-9.555 1.771,-10.88 0.332,-3.176 0.637,-7.29 0.581,-12.151 -2.407,1.16 -4.787,2.348 -7.194,3.535 z"
             fill="#9b9797"
             id="path1015" /><path
             d="m 255.776,192.343 c 0.028,5.219 -0.304,10.438 -1.023,15.63 -0.665,4.666 -1.495,9.471 -3.21,13.89 -1.854,4.777 -5.037,8.256 -8.883,11.542 -3.929,3.342 -7.886,6.628 -11.843,9.914 -4.538,3.783 -9.104,7.539 -13.642,11.322 -0.415,0.331 0.166,0.911 0.581,0.58 8.329,-6.904 16.658,-13.78 24.932,-20.766 3.652,-3.093 6.973,-6.296 8.965,-10.742 1.937,-4.308 2.878,-9.03 3.625,-13.669 0.941,-5.855 1.384,-11.764 1.328,-17.701 0,-0.552 -0.83,-0.552 -0.83,0 z"
             fill="#000000"
             id="path1017" /><path
             d="m 211.834,204.328 c 1.135,0.607 2.27,1.215 3.432,1.822 0.47,0.249 0.885,-0.469 0.415,-0.718 -1.135,-0.607 -2.269,-1.215 -3.431,-1.822 -0.471,-0.249 -0.886,0.469 -0.416,0.718 z"
             fill="#000000"
             id="path1019" /><path
             d="m 215.266,205.819 c -9.851,8.008 -20.2,15.933 -28.419,25.654 -7.083,8.367 -12.922,18.971 -12.894,30.21 0,4.943 1.356,10.107 5.008,13.614 3.653,3.534 8.938,4.915 13.919,4.666 6.087,-0.303 11.871,-2.706 17.294,-5.357 5.811,-2.844 11.318,-6.213 16.852,-9.554 11.4,-6.904 24.129,-13.338 32.68,-23.859 0.332,-0.414 -0.249,-0.994 -0.581,-0.58 -7.167,8.837 -17.24,14.497 -26.842,20.296 -5.285,3.204 -10.515,6.462 -15.91,9.5 -5.286,2.982 -10.792,5.826 -16.631,7.511 -5.479,1.574 -11.594,1.905 -16.769,-0.828 -4.98,-2.596 -7.526,-7.622 -8.052,-13.09 -1.024,-11.045 4.538,-22.036 11.262,-30.431 8.385,-10.466 19.342,-18.805 29.691,-27.2 0.388,-0.304 -0.193,-0.884 -0.608,-0.552 z"
             fill="#000000"
             id="path1021" /><path
             d="m 249.55,227.662 c 5.203,2.485 8.827,7.4 9.685,13.089 0.083,0.525 0.886,0.304 0.803,-0.221 -0.858,-5.882 -4.677,-11.046 -10.045,-13.586 -0.498,-0.221 -0.913,0.497 -0.443,0.718 z"
             fill="#000000"
             id="path1023" /><path
             d="m 251.211,228.38 c 1.106,-0.442 1.992,-1.188 2.933,-1.906 1.107,-0.856 2.241,-1.684 3.348,-2.54 0.415,-0.332 0,-1.05 -0.415,-0.718 -0.996,0.745 -1.992,1.491 -2.989,2.264 -0.968,0.746 -1.937,1.657 -3.099,2.099 -0.47,0.193 -0.276,0.994 0.222,0.801 z"
             fill="#000000"
             id="path1025" /><path
             d="m 257.907,223.602 c 0.553,-1.629 1.218,-3.231 2.103,-4.722 1.218,-2.043 3.044,-1.822 5.092,-1.298 3.182,0.801 6.226,2.016 9.435,2.734 6.226,1.381 12.619,1.85 18.983,1.436 0.526,-0.027 0.526,-0.856 0,-0.828 -7.499,0.497 -15.053,-0.276 -22.303,-2.32 -1.743,-0.497 -3.431,-1.132 -5.175,-1.629 -1.328,-0.387 -2.905,-0.829 -4.289,-0.552 -1.245,0.248 -1.964,1.187 -2.573,2.236 -0.858,1.492 -1.522,3.093 -2.075,4.722 -0.166,0.497 0.636,0.718 0.802,0.221 z"
             fill="#000000"
             id="path1027" /><path
             d="m 259.097,236.94 c 2.075,-1.574 4.123,-3.148 6.198,-4.722 0.415,-0.331 0,-1.049 -0.415,-0.718 -2.075,1.574 -4.123,3.148 -6.198,4.722 -0.415,0.331 0,1.049 0.415,0.718 z"
             fill="#000000"
             id="path1029" /><path
             d="m 265.268,232.025 c 6.751,1.463 13.641,0.359 20.034,-2.071 2.905,-1.105 6.226,-2.348 8.716,-4.225 1.743,-1.298 1.992,-3.783 -0.304,-4.667 -0.499,-0.193 -0.72,0.607 -0.222,0.801 1.245,0.469 1.384,1.822 0.526,2.761 -0.415,0.47 -0.996,0.773 -1.55,1.105 -1.134,0.635 -2.296,1.215 -3.459,1.767 -2.462,1.16 -5.008,2.154 -7.637,2.927 -5.174,1.491 -10.598,1.988 -15.911,0.829 -0.498,-0.139 -0.719,0.662 -0.193,0.773 z"
             fill="#000000"
             id="path1031" /><path
             d="m 193.156,112.759 c 4.206,-3.48 10.488,-7.677 18.872,-10.163 3.929,-1.159 8.855,-2.595 15.385,-2.043 10.017,0.856 16.907,5.771 19.343,7.566 3.818,2.789 6.419,5.744 8.024,7.815 0.305,19.358 0.72,38.743 1.245,58.101 0.166,5.965 0.332,11.957 0.526,17.922 -3.929,2.43 -9.436,5.163 -16.409,6.765 -16.326,3.728 -29.912,-1.243 -35.419,-3.645 -0.028,-4.888 -0.332,-12.233 -1.826,-21.042 -2.435,-14.47 -6.226,-20.297 -8.606,-32.751 -1.19,-6.434 -2.324,-16.099 -1.135,-28.525 z"
             fill="#0a3871"
             id="path1033"
             style="fill:#070f1d;fill-opacity:1" /><path
             d="m 243.186,117.536 c -1.356,1.491 -1.605,3.175 -1.522,9.637 0.055,6.793 0.415,11.432 0.637,16.817 0.166,3.894 0.304,6.987 0.221,11.018 -0.083,5.081 -0.415,9.251 -0.72,12.04 -2.711,3.038 -5.119,5.413 -6.917,7.125 -4.04,3.838 -8.44,7.98 -14.943,11.874 -2.573,1.519 -4.787,2.623 -6.281,3.314 -1.356,-0.221 -2.878,-0.553 -4.538,-0.967 -3.93,-0.994 -5.562,-1.878 -8.523,-1.878 -0.885,0 -3.68,0 -3.957,0.994 -0.249,0.829 1.301,2.127 2.518,2.762 1.135,0.58 1.633,0.414 2.767,0.939 1.273,0.607 2.103,1.491 2.601,2.154 -0.525,0.745 -1.328,1.877 -2.213,3.341 -1.024,1.712 -1.246,2.375 -2.435,4.418 -1.246,2.154 -1.882,3.231 -2.435,3.783 -0.858,0.801 -1.384,0.967 -5.23,2.679 -3.819,1.712 -4.483,2.099 -4.483,2.568 0,0.47 0.747,0.58 3.708,1.85 2.407,1.022 2.629,1.243 3.874,1.602 1.549,0.442 2.49,0.718 3.625,0.469 1.798,-0.359 2.961,-1.712 3.459,-2.43 0.249,0.221 0.857,0.691 1.66,0.718 0.636,0 1.162,-0.248 1.577,-0.58 1.743,-1.242 2.601,-3.534 4.317,-6.102 0.304,-0.442 1.383,-2.071 3.127,-3.894 1.079,-1.16 2.075,-2.016 2.795,-2.596 0.968,-0.221 2.407,-0.552 4.123,-1.049 6.668,-1.905 11.483,-4.197 15.523,-6.13 2.352,-1.133 5.009,-2.624 10.294,-5.579 4.593,-2.568 6.973,-4.004 9.076,-6.82 0.221,-0.304 1.356,-1.823 2.352,-4.06 0.304,-0.69 1.384,-3.148 1.965,-7.455 0.276,-1.906 0.276,-2.955 0.304,-8.92 0.055,-7.594 0.055,-6.683 0.055,-7.456 -0.027,-11.128 -0.608,-10.134 -0.802,-20.352 -0.028,-0.966 -0.055,-3.589 -0.858,-6.903 -0.858,-3.59 -1.937,-5.192 -2.546,-5.992 -0.774,-1.022 -1.715,-2.237 -3.32,-2.928 -2.933,-1.297 -6.835,-0.248 -8.855,1.989 z"
             fill="#ffffff"
             id="path1035" /><path
             opacity="0.25"
             d="m 252.068,115.52 c 0.665,2.181 1.467,5.329 2.02,9.14 0.665,4.612 0.914,9.693 -0.581,22.975 -1.245,11.101 -1.854,16.652 -3.459,21.843 -2.296,7.401 -3.957,12.786 -9.02,17.038 -3.266,2.734 -6.835,4.004 -14.002,6.517 -5.258,1.85 -9.768,2.955 -12.867,3.645 -2.214,2.983 -5.507,6.766 -10.183,10.356 -3.653,2.816 -7.167,4.749 -10.072,6.075 0.415,0.276 2.13,1.381 4.455,1.077 2.711,-0.359 4.178,-2.292 4.427,-2.651 0.526,0.387 1.301,0.801 2.158,0.663 1.771,-0.276 2.712,-2.789 3.183,-3.922 1.023,-2.347 3.071,-5.578 7.664,-9.112 3.044,-0.801 7.167,-2.016 11.954,-3.839 6.669,-2.568 11.152,-5.053 15.967,-7.732 7.72,-4.308 9.463,-6.075 10.736,-7.787 2.325,-3.12 3.293,-6.324 3.708,-7.732 0.747,-2.513 0.886,-5.33 1.162,-10.825 0.194,-4.087 0.194,-7.235 0.194,-9.61 0,-4.087 -0.083,-7.124 -0.166,-9.747 -0.111,-3.811 -0.332,-8.285 -0.886,-13.642 -0.415,-3.894 -0.719,-5.44 -1.604,-7.18 -1.356,-2.761 -3.376,-4.528 -4.788,-5.55 z"
             fill="#9b9797"
             id="path1037" /><path
             d="m 242.771,117.425 c -1.439,3.59 -1.605,7.456 -1.522,11.294 0.083,4.225 0.304,8.423 0.498,12.648 0.388,8.56 0.664,17.148 -0.36,25.681 -0.055,0.525 0.775,0.525 0.831,0 0.996,-8.339 0.774,-16.762 0.387,-25.129 -0.194,-4.142 -0.415,-8.284 -0.526,-12.454 -0.111,-4.004 -0.028,-8.036 1.494,-11.819 0.194,-0.497 -0.608,-0.718 -0.802,-0.221 z"
             fill="#000000"
             id="path1039" /><path
             d="m 242.992,166.33 c -2.545,1.409 -4.593,3.452 -6.558,5.578 -2.13,2.292 -4.261,4.529 -6.641,6.573 -4.87,4.225 -10.349,7.704 -16.215,10.41 -0.498,0.221 -0.056,0.939 0.415,0.718 5.645,-2.596 10.93,-5.909 15.662,-9.913 2.352,-1.961 4.51,-4.115 6.586,-6.352 2.158,-2.347 4.316,-4.722 7.139,-6.268 0.498,-0.304 0.083,-1.022 -0.388,-0.746 z"
             fill="#000000"
             id="path1041" /><path
             d="m 213.771,188.946 c -3.043,-0.635 -6.115,-1.298 -9.159,-1.988 -1.522,-0.331 -3.071,-0.745 -4.621,-1.022 -0.968,-0.165 -1.992,-0.248 -2.85,0.304 -1.328,0.856 -1.328,2.43 -0.138,3.369 0.858,0.69 1.964,0.994 2.988,1.326 1.661,0.524 3.072,1.187 4.151,2.595 0.332,0.415 1.051,0 0.719,-0.414 -0.968,-1.243 -2.13,-2.126 -3.625,-2.651 -1.023,-0.359 -2.158,-0.58 -3.099,-1.104 -0.664,-0.359 -1.522,-0.912 -1.024,-1.906 0.471,-0.939 1.661,-0.856 2.519,-0.718 2.296,0.332 4.593,0.994 6.89,1.519 2.352,0.525 4.704,1.022 7.056,1.519 0.498,0.083 0.719,-0.718 0.193,-0.829 z"
             fill="#000000"
             id="path1043" /><path
             d="m 203.478,193.669 c -1.218,2.236 -2.463,4.445 -3.68,6.682 -0.609,1.077 -1.135,2.237 -1.854,3.286 -0.748,1.077 -1.744,1.63 -2.906,2.182 -2.186,1.022 -4.538,1.85 -6.641,3.037 -0.941,0.553 -1.55,1.547 -0.747,2.513 0.996,1.188 2.961,0.718 4.289,0.497 1.826,-0.303 3.569,-0.911 5.23,-1.684 3.459,-1.657 6.392,-4.253 8.495,-7.456 0.304,-0.442 -0.415,-0.856 -0.72,-0.414 -1.854,2.872 -4.427,5.191 -7.443,6.793 -1.439,0.746 -2.989,1.353 -4.566,1.712 -0.885,0.221 -1.826,0.414 -2.767,0.442 -0.858,0.055 -1.079,0.166 -1.494,-0.69 -0.526,-0.498 -0.471,-0.829 0.138,-0.995 0.194,-0.082 0.36,-0.165 0.553,-0.248 1.771,-0.829 3.57,-1.629 5.341,-2.458 1.384,-0.635 2.739,-1.187 3.68,-2.43 1.107,-1.463 1.882,-3.203 2.767,-4.805 1.024,-1.85 2.048,-3.7 3.044,-5.523 0.249,-0.497 -0.47,-0.911 -0.719,-0.441 z"
             fill="#000000"
             id="path1045" /><path
             d="m 216.124,199.716 c 7.388,-2.071 14.555,-4.832 21.417,-8.257 3.404,-1.712 6.724,-3.562 9.962,-5.605 2.905,-1.823 5.977,-3.673 8.052,-6.462 0.304,-0.442 -0.415,-0.856 -0.719,-0.414 -2.159,2.927 -5.535,4.832 -8.578,6.71 -3.1,1.905 -6.31,3.673 -9.575,5.302 -6.668,3.286 -13.614,5.937 -20.781,7.953 -0.498,0.11 -0.277,0.911 0.222,0.773 z"
             fill="#000000"
             id="path1047" /><path
             d="m 243.324,118.171 c 2.297,-4.501 8.191,-3.48 11.096,-0.276 3.487,3.866 3.653,9.527 4.04,14.442 0.831,10.742 0.997,21.567 0.333,32.309 -0.333,5.219 -1.107,10.742 -4.594,14.884 -0.332,0.414 0.249,0.994 0.581,0.58 3.127,-3.756 4.206,-8.505 4.649,-13.255 0.581,-6.075 0.581,-12.233 0.526,-18.336 -0.056,-6.379 -0.36,-12.785 -0.941,-19.137 -0.443,-4.777 -1.301,-10.051 -5.258,-13.227 -3.376,-2.706 -9.02,-2.623 -11.179,1.602 -0.221,0.469 0.498,0.883 0.747,0.414 z"
             fill="#000000"
             id="path1049" /><path
             d="m 191.192,212.336 c 2.02,0.911 4.455,2.292 6.752,2.292 2.213,-0.028 3.846,-1.85 5.34,-3.231 4.289,-3.977 8.578,-7.953 12.867,-11.902 0.388,-0.359 -0.193,-0.939 -0.581,-0.58 -3.625,3.369 -7.25,6.71 -10.875,10.079 -1.605,1.464 -3.265,3.563 -5.285,4.474 -2.38,1.077 -5.645,-0.856 -7.775,-1.823 -0.499,-0.248 -0.914,0.47 -0.443,0.691 z"
             fill="#000000"
             id="path1051" /><path
             d="m 202.454,211.756 c 0.913,1.712 2.933,1.022 3.957,-0.166 2.02,-2.375 3.597,-5.246 5.313,-7.815 0.304,-0.441 -0.415,-0.856 -0.72,-0.414 -1.079,1.602 -2.158,3.204 -3.237,4.805 -0.609,0.884 -3.293,5.661 -4.594,3.176 -0.249,-0.47 -0.968,-0.055 -0.719,0.414 z"
             fill="#000000"
             id="path1053" /><path
             d="m 196.034,210.403 c 0.83,0.442 1.854,0.884 2.767,0.442 0.471,-0.249 0.665,-0.635 0.886,-1.077 0.387,-0.746 0.775,-1.326 1.494,-1.795 0.443,-0.304 0.028,-1.022 -0.415,-0.718 -0.664,0.442 -1.217,0.994 -1.605,1.712 -0.277,0.525 -0.443,1.16 -1.162,1.215 -0.526,0.055 -1.107,-0.276 -1.55,-0.497 -0.442,-0.221 -0.885,0.469 -0.415,0.718 z"
             fill="#000000"
             id="path1055" /><path
             d="m 190.362,52.6143 c -0.969,1.9606 -1.937,5.2467 -2.242,6.3236 -0.442,1.5465 -1.439,5.1639 -1.992,9.9688 -0.304,2.651 -0.636,5.5505 -0.36,9.3889 0.139,1.8226 0.332,4.6945 1.411,8.2567 0.72,2.4301 1.771,5.9371 4.622,9.527 2.49,3.1204 5.34,5.0807 7.609,6.2687 1.439,0.027 3.182,-0.055 5.119,-0.414 3.487,-0.663 6.199,-1.9611 8.025,-3.0104 0.249,1.4084 0.581,2.8994 0.996,4.4454 0.858,3.204 1.909,6.02 2.961,8.45 1.134,-0.193 2.49,-0.524 3.929,-1.187 4.566,-2.126 6.752,-6.047 7.527,-7.677 -0.415,-1.601 -0.747,-3.3411 -1.052,-5.136 -1.051,-6.7103 -0.774,-12.7026 -0.11,-17.5628 0.581,0.1933 1.522,0.4419 2.684,0.3866 2.269,-0.138 3.818,-1.3807 4.593,-2.0434 0.664,-0.5523 3.68,-3.2309 3.57,-7.2074 -0.028,-0.9389 -0.083,-3.2309 -1.716,-4.4735 -1.522,-1.1322 -3.569,-0.718 -5.064,-0.4142 -1.715,0.359 -2.988,1.0769 -3.763,1.574 0.581,-1.9054 1.799,-6.7931 0,-12.4817 -0.387,-1.215 -2.961,-8.9471 -10.543,-12.2884 -10.293,-4.584 -22.662,2.2092 -26.204,9.3061 z"
             fill="#ffffff"
             id="path1057" /><path
             opacity="0.24"
             d="m 221.63,52.78 c 0.221,2.5682 0.388,6.2961 0,10.7144 -1.19,13.393 -6.503,22.699 -7.886,25.0186 -2.103,3.5347 -5.7,8.6709 -11.456,13.724 1.716,-0.221 3.68,-0.607 5.783,-1.353 5.784,-2.0432 9.657,-5.5502 11.76,-7.8422 0.167,3.0652 0.692,6.7931 1.937,10.8802 0.554,1.74 1.163,3.341 1.799,4.777 1.467,-1.905 2.906,-3.811 4.372,-5.744 -0.304,-1.795 -0.581,-3.7 -0.775,-5.6606 -0.636,-5.9371 -0.636,-11.4047 -0.304,-16.2649 1.245,0.0276 3.044,-0.0828 4.953,-0.8284 8.357,-3.3137 13.116,-16.4858 8.606,-23.6655 -0.194,-0.3038 -1.19,-1.8502 -3.238,-3.2309 C 230.845,49.0521 222.792,52.283 221.63,52.78 Z"
             fill="#9b9797"
             id="path1059" /><path
             d="m 188.342,58.1096 c -0.554,-1.9054 -1.329,-5.5505 -0.526,-10.024 0.249,-1.3808 1.107,-5.8267 4.151,-9.3337 4.455,-5.1087 10.044,-4.1422 17.294,-6.7379 4.593,-1.6292 10.902,-5.0534 17.295,-13.1168 -0.582,2.9823 -1.163,5.9923 -1.744,8.9746 0.996,0.2762 4.345,0.9942 7.776,-0.6903 5.7,-2.7891 6.198,-9.527 6.226,-9.8307 0.692,1.5464 1.937,4.9706 1.383,9.3336 -0.387,2.9824 -1.466,5.2191 -2.241,6.5722 0.332,0.359 2.103,2.1816 4.151,1.9054 2.49,-0.3313 4.815,-3.7279 4.15,-8.1186 0.554,1.6293 1.218,4.3079 1.052,7.594 -0.221,4.004 -1.55,7.014 -2.435,8.6433 0.221,0.1933 1.632,1.4635 3.625,1.215 1.743,-0.2209 3.237,-1.4912 3.818,-3.2861 -0.138,1.8501 -0.47,4.5287 -1.549,7.5939 -1.467,4.1422 -2.684,4.4736 -3.293,7.4283 -0.969,4.6392 1.522,6.2132 0.858,10.3554 -0.554,3.4794 -2.823,5.6609 -5.7,8.45 -5.23,5.0534 -11.235,7.7872 -16.271,9.306 0.221,-1.5464 0.47,-3.0928 0.692,-4.6392 0.636,0.3866 1.743,0.9113 3.126,0.8561 2.823,-0.1105 4.594,-2.6234 5.535,-3.9765 1.079,-1.5188 2.878,-4.1145 1.909,-6.9036 -0.802,-2.2644 -2.933,-3.2033 -3.127,-3.2861 -2.49,-1.0494 -5.7,-0.1105 -7.775,2.4301 -1.163,-4.5564 -2.297,-9.0852 -3.459,-13.6415 -3.93,-2.4853 -7.831,-4.943 -11.761,-7.4283 -1.937,-0.359 -7.222,-1.077 -13.143,1.5464 -5.977,2.651 -9.021,7.1521 -10.017,8.809 z"
             fill="#0a3871"
             id="path1061"
             style="fill:#070f1d;fill-opacity:1" /><path
             d="m 187.927,57.9992 c -2.352,8.7813 -3.764,18.115 -1.605,27.0897 1.771,7.2902 6.253,15.6021 13.891,17.9771 0.498,0.166 0.719,-0.635 0.221,-0.801 -7.665,-2.3748 -11.954,-11.0181 -13.531,-18.3083 -1.854,-8.5605 -0.443,-17.3971 1.798,-25.7366 0.166,-0.4971 -0.636,-0.718 -0.774,-0.2209 z"
             fill="#000000"
             id="path1063" /><path
             d="m 200.821,102.928 c 12.757,-1.298 23.41,-10.4938 26.399,-22.9755 0.11,-0.5247 -0.664,-0.7456 -0.803,-0.2209 -2.905,12.0675 -13.171,21.0974 -25.596,22.3674 -0.525,0.055 -0.553,0.884 0,0.829 z"
             fill="#000000"
             id="path1065" /><path
             d="m 226.5,80.1734 c 5.701,3.4794 11.262,-3.8108 11.622,-8.9194 0.194,-2.7062 -1.051,-4.7773 -3.735,-5.5505 -2.491,-0.718 -5.203,0.0276 -6.974,1.9054 -0.359,0.3866 0.222,0.9665 0.582,0.5799 1.466,-1.5741 3.68,-2.2644 5.81,-1.795 1.107,0.2486 2.325,0.8561 2.961,1.8502 0.692,1.077 0.609,2.5681 0.443,3.7555 -0.664,4.2803 -5.424,10.4107 -10.294,7.4283 -0.442,-0.2485 -0.885,0.4695 -0.415,0.7456 z"
             fill="#000000"
             id="path1067" /><path
             d="m 226.445,80.1182 c -1.079,7.6492 -0.692,15.4088 1.134,22.9198 0.139,0.525 0.941,0.304 0.803,-0.221 -1.799,-7.3728 -2.186,-14.9944 -1.135,-22.4779 0.056,-0.5247 -0.747,-0.7456 -0.802,-0.2209 z"
             fill="#000000"
             id="path1069" /><path
             d="m 212.139,99.034 c 0.858,4.474 2.186,8.809 4.012,13.006 0.222,0.497 0.941,0.056 0.72,-0.414 -1.799,-4.114 -3.099,-8.395 -3.93,-12.8129 -0.11,-0.5246 -0.885,-0.3037 -0.802,0.2209 z"
             fill="#000000"
             id="path1071" /><path
             d="m 216.732,112.151 c 5.341,-0.856 9.851,-4.529 11.871,-9.527 0.194,-0.497 -0.608,-0.718 -0.802,-0.221 -1.909,4.75 -6.254,8.146 -11.29,8.947 -0.526,0.083 -0.304,0.884 0.221,0.801 z"
             fill="#000000"
             id="path1073" /><path
             d="m 212.803,100 c 1.135,0.056 1.909,-0.7175 2.767,-1.3803 1.135,-0.8836 2.214,-1.8225 3.21,-2.8166 1.854,-1.8502 3.348,-3.9765 4.317,-6.4066 0.193,-0.497 -0.609,-0.7179 -0.803,-0.2209 -0.858,2.1539 -2.186,4.0593 -3.791,5.7162 -0.719,0.7732 -1.494,1.4636 -2.296,2.1539 -0.886,0.7456 -2.159,2.1816 -3.404,2.1263 -0.526,-0.0276 -0.526,0.8008 0,0.828 z"
             fill="#000000"
             id="path1075" /><path
             d="m 212.858,99.5589 c 2.352,-1.5188 4.538,-3.2585 6.586,-5.1639 0.387,-0.359 -0.194,-0.9665 -0.581,-0.5799 -1.992,1.8778 -4.123,3.5623 -6.42,5.0534 -0.47,0.2486 -0.027,0.9665 0.415,0.6904 z"
             fill="#000000"
             id="path1077" /><path
             d="m 196.588,59.6008 c -1.55,7.0416 -2.435,14.1938 -2.629,21.4011 0,0.4142 0.553,0.5523 0.775,0.2209 1.079,-1.7121 2.158,-3.4518 3.237,-5.1639 0.277,-0.4418 -0.442,-0.8836 -0.719,-0.4142 -1.079,1.7121 -2.158,3.4518 -3.238,5.1639 0.249,0.0829 0.526,0.1381 0.775,0.2209 0.194,-7.1245 1.079,-14.2214 2.601,-21.1802 0.111,-0.5523 -0.692,-0.7732 -0.802,-0.2485 z"
             fill="#000000"
             id="path1079" /><path
             d="m 197.695,91.3849 c -0.665,-1.2426 -1.107,-2.5681 -1.218,-3.9765 -0.083,-0.9941 0.138,-5.0258 2.02,-3.4242 0.996,0.8561 0.858,2.7339 0.885,3.9765 0,0.5799 0,1.1874 -0.055,1.7673 -0.028,0.4143 -0.083,0.8285 -0.166,1.2151 -0.719,0.497 -1.273,0.4694 -1.632,-0.0552 -0.36,-0.3866 -0.969,0.1933 -0.582,0.5799 1.19,1.215 2.74,1.2702 3.072,-0.6352 0.249,-1.3531 0.249,-2.789 0.138,-4.1421 -0.083,-1.077 -0.083,-2.6234 -0.885,-3.4518 -1.19,-1.2151 -2.878,-0.0829 -3.348,1.215 -0.858,2.3196 -0.028,5.2467 1.079,7.3454 0.221,0.4695 0.941,0.0553 0.692,-0.4142 z"
             fill="#000000"
             id="path1081" /><path
             d="m 203.422,66.5319 c 0.831,3.8937 5.95,4.1974 7.472,0.6076 0.193,-0.4971 -0.609,-0.718 -0.803,-0.221 -1.245,2.9272 -5.23,2.3749 -5.866,-0.6075 -0.111,-0.497 -0.913,-0.3037 -0.803,0.2209 z"
             fill="#000000"
             id="path1083" /><path
             d="m 201.79,56.9498 c 1.051,-2.3473 3.763,-3.4795 6.254,-2.9548 2.573,0.5523 4.538,2.5405 5.811,4.7221 0.276,0.4694 0.996,0.0552 0.719,-0.4142 -1.467,-2.5129 -3.791,-4.7497 -6.779,-5.1915 -2.685,-0.3866 -5.562,0.8836 -6.725,3.3965 -0.221,0.5247 0.499,0.9389 0.72,0.4419 z"
             fill="#000000"
             id="path1085" /><path
             d="m 185.575,57.8611 c 0.747,-1.5464 2.047,-3.2309 3.957,-3.2033 1.826,0.0277 3.154,1.6293 4.067,3.0376 0.277,0.4419 0.996,0.0276 0.72,-0.4142 -1.052,-1.6845 -2.629,-3.4242 -4.787,-3.4518 -2.214,-0.0276 -3.764,1.795 -4.649,3.6175 -0.249,0.4694 0.47,0.8837 0.692,0.4142 z"
             fill="#000000"
             id="path1087" /><path
             d="m 190.472,70.3704 c 0.489,0 0.886,-1.8174 0.886,-4.0593 0,-2.2419 -0.397,-4.0593 -0.886,-4.0593 -0.489,0 -0.885,1.8174 -0.885,4.0593 0,2.2419 0.396,4.0593 0.885,4.0593 z"
             fill="#000000"
             id="path1089" /><path
             d="m 193.018,114.056 c -0.083,1.022 -0.194,2.43 -0.249,4.06 -0.249,5.578 -0.028,9.803 0.055,10.935 0.222,3.673 0.72,8.478 1.882,14.056 -1.107,1.27 -2.767,3.148 -4.898,5.357 -4.04,4.225 -6.115,6.379 -9.436,8.616 -3.708,2.485 -6.281,3.258 -7.665,3.617 -1.743,0.414 -3.403,0.801 -5.423,0.359 -3.293,-0.746 -5.258,-3.176 -5.977,-4.115 -1.826,-2.319 -2.241,-4.584 -2.989,-9.002 -0.553,-3.231 -0.664,-5.688 -0.83,-10.438 -0.083,-2.264 -0.193,-5.026 -0.138,-8.726 0.055,-4.17 0.277,-9.113 0.885,-14.636 0.277,-2.485 0.664,-5.55 1.273,-9.03 -0.47,-0.662 -0.968,-1.325 -1.494,-2.016 -0.553,-0.718 -1.079,-1.408 -1.633,-2.098 -1.411,1.187 -2.794,2.402 -4.206,3.59 -0.359,0.138 -0.996,0.359 -1.771,0.276 -1.466,-0.138 -2.324,-1.16 -2.628,-1.491 -1.356,-1.547 -1.163,-3.5074 -1.107,-3.894 1.909,-2.0711 3.818,-4.1146 5.755,-6.1857 0.028,-1.1874 0.194,-2.7338 0.665,-4.4459 0.359,-1.2702 0.802,-2.3196 1.217,-3.2032 0.36,-0.718 0.858,-1.5188 1.494,-2.3196 1.135,-1.4912 2.352,-2.5406 3.349,-3.2585 -0.803,0.359 -0.997,0.359 -1.052,0.3037 -0.138,-0.2209 1.162,-1.8501 2.989,-2.0158 1.023,-0.1105 1.826,0.2761 2.379,0.5247 0.858,0.4142 1.439,0.9388 1.799,1.3254 1.715,-1.4635 3.431,-2.9271 5.147,-4.363 0.608,0.359 1.217,0.7732 1.826,1.1874 1.411,0.9665 2.684,1.933 3.819,2.8719 -0.415,0.5247 -0.941,1.1046 -1.605,1.6845 -1.107,0.9665 -2.214,1.5464 -3.072,1.933 0.526,0.1656 1.467,0.5522 1.937,1.4635 0.471,0.8837 0.277,1.8502 0,3.0652 -0.194,0.8284 -0.443,1.4912 -0.636,1.933 0.11,1.1598 0.166,2.7338 -0.166,4.5012 -0.526,2.8995 -1.744,5.0534 -2.574,6.2962 -0.027,1.077 -0.055,2.761 0,4.832 0.222,8.533 1.467,13.531 2.269,19.827 0.471,3.59 0.941,8.92 0.803,15.63 0.636,-0.414 1.549,-1.077 2.573,-1.933 2.601,-2.181 4.262,-4.363 6.448,-7.566 2.158,-3.121 3.569,-5.44 5.479,-8.533 1.189,-2.016 3.099,-5.081 5.506,-8.975 z"
             fill="#ffffff"
             id="path1091" /><path
             opacity="0.24"
             d="m 167.865,88.8444 c -0.581,1.2702 -1.162,2.5681 -1.743,3.8936 -1.688,3.9765 -3.072,7.787 -4.206,11.432 -0.249,5.744 -0.388,10.549 -0.498,14.028 -0.139,5.275 0.193,11.571 0.802,24.163 0.249,5.192 0.47,8.34 2.906,10.632 2.545,2.374 6.087,2.43 8.079,2.43 10.626,-0.028 18.568,-9.058 20.754,-11.681 -2.961,5.026 -6.337,8.312 -8.634,10.245 -2.601,2.181 -5.949,4.915 -11.151,6.268 -4.4,1.16 -6.392,0.911 -6.918,0.801 -3.791,-0.911 -5.894,-4.059 -6.641,-5.136 -1.799,-2.679 -2.38,-5.468 -2.712,-11.46 -0.332,-6.158 0.028,-7.788 0.139,-16.265 0.083,-8.091 -0.222,-10.383 0.387,-15.989 0.36,-3.286 0.803,-5.992 1.162,-7.815 -1.079,-1.132 -2.158,-2.264 -3.237,-3.369 -0.913,0.801 -1.854,1.574 -2.795,2.375 -0.609,0.525 -1.245,1.049 -1.854,1.547 -0.553,0.055 -1.356,0.027 -2.214,-0.332 -2.213,-0.939 -3.597,-3.673 -2.905,-4.611 0.443,-0.6356 1.605,-0.1385 3.21,-0.1385 2.767,0.0276 4.621,-1.3807 8.301,-4.0317 2.601,-1.9054 5.59,-4.0317 9.768,-6.9864 z"
             fill="#9b9797"
             id="path1093" /><path
             d="m 192.658,113.835 c -6.392,8.809 -11.123,18.916 -19.203,26.427 -0.388,0.359 0.193,0.939 0.581,0.58 8.135,-7.566 12.894,-17.728 19.342,-26.592 0.332,-0.415 -0.388,-0.829 -0.72,-0.415 z"
             fill="#000000"
             id="path1095" /><path
             d="m 168.861,161.691 c 10.958,-0.718 18.817,-9.886 25.402,-17.673 0.332,-0.414 -0.249,-0.994 -0.581,-0.58 -6.392,7.622 -14.14,16.734 -24.793,17.452 -0.554,0 -0.554,0.829 -0.028,0.801 z"
             fill="#000000"
             id="path1097" /><path
             d="m 163.659,83.9015 c 0.055,2.1815 1.494,4.0593 3.597,4.6668 0.526,0.1381 0.747,-0.6627 0.222,-0.8008 -1.744,-0.4971 -2.934,-2.0711 -2.989,-3.866 -0.028,-0.5247 -0.858,-0.5247 -0.83,0 z"
             fill="#000000"
             id="path1099" /><path
             d="m 164.517,83.6529 c 0.276,-2.4024 4.565,-0.6627 5.728,-0.0552 1.134,0.5799 2.269,1.1598 2.518,2.5405 0.193,1.0494 -0.139,2.1539 -0.415,3.1757 -0.139,0.5246 0.664,0.7456 0.802,0.2209 0.388,-1.3807 0.803,-2.9548 0.222,-4.3079 -0.554,-1.3807 -2.076,-2.0158 -3.321,-2.6233 -1.273,-0.6075 -2.656,-1.0494 -4.095,-0.8837 -0.581,0.0829 -1.329,0.2209 -1.799,0.6075 -0.498,0.3866 -0.387,0.6628 -0.47,1.3531 -0.056,0.4971 0.774,0.4971 0.83,-0.0276 z"
             fill="#000000"
             id="path1101" /><path
             d="m 172.071,89.1482 c -0.083,2.0987 0.387,4.1421 -0.111,6.2408 -0.47,1.933 -1.411,3.7279 -2.352,5.468 -0.249,0.469 0.471,0.883 0.72,0.414 0.968,-1.8227 1.937,-3.6729 2.435,-5.6611 0.526,-2.1539 0.055,-4.2802 0.138,-6.4617 0.028,-0.5523 -0.802,-0.5523 -0.83,0 z"
             fill="#000000"
             id="path1103" /><path
             d="m 169.608,100.884 c -0.636,14.553 3.542,28.802 2.878,43.355 -0.028,0.524 0.802,0.524 0.83,0 0.664,-14.553 -3.514,-28.802 -2.878,-43.355 0.028,-0.525 -0.802,-0.525 -0.83,0 z"
             fill="#000000"
             id="path1105" /><path
             d="m 156.022,101.188 c 0.83,1.16 1.715,2.264 2.711,3.286 0.36,0.387 0.941,-0.193 0.582,-0.58 -0.941,-0.994 -1.799,-2.016 -2.574,-3.12 -0.332,-0.442 -1.051,-0.028 -0.719,0.414 z"
             fill="#000000"
             id="path1107" /><path
             d="m 159.204,104.253 c -1.577,8.975 -2.352,18.088 -2.325,27.2 0.028,4.529 0.25,9.085 0.692,13.587 0.36,3.838 0.803,7.87 2.823,11.239 1.826,3.065 5.036,5.384 8.689,5.302 0.525,-0.028 0.525,-0.856 0,-0.829 -5.12,0.138 -8.413,-4.418 -9.602,-8.892 -1.329,-4.915 -1.439,-10.272 -1.633,-15.326 -0.415,-10.714 0.332,-21.484 2.186,-32.032 0.055,-0.553 -0.747,-0.774 -0.83,-0.249 z"
             fill="#000000"
             id="path1109" /><path
             d="m 153.974,91.8543 c -2.601,2.1816 -5.119,4.4735 -7.499,6.876 -0.387,0.3866 0.221,0.9665 0.581,0.5799 2.408,-2.4024 4.898,-4.6945 7.499,-6.876 0.415,-0.3314 -0.166,-0.9113 -0.581,-0.5799 z"
             fill="#000000"
             id="path1111" /><path
             d="m 146.226,99.4759 c -0.415,3.2031 2.02,5.9091 5.258,5.8821 0.525,0 0.525,-0.829 0,-0.829 -2.795,0.028 -4.788,-2.319 -4.428,-5.0531 0.083,-0.5247 -0.747,-0.5247 -0.83,0 z"
             fill="#000000"
             id="path1113" /><path
             d="m 147.001,99.2827 c 2.905,0.0828 4.925,2.6783 4.317,5.4953 -0.111,0.525 0.691,0.746 0.802,0.221 0.747,-3.397 -1.633,-6.4343 -5.119,-6.5448 -0.526,0 -0.526,0.8285 0,0.8285 z"
             fill="#000000"
             id="path1115" /><path
             d="m 152.452,104.861 c 3.155,-2.872 6.364,-5.7165 9.436,-8.6712 1.411,-1.3531 2.767,-2.7338 4.04,-4.225 0.692,-0.8008 2.435,-2.3748 2.463,-3.4794 0,-0.1381 -0.083,-0.3038 -0.194,-0.359 -0.055,-0.0276 -0.111,-0.0552 -0.138,-0.0552 -0.166,-0.0829 -0.388,-0.0829 -0.498,0.0552 -0.028,0.0276 -0.056,0.0552 -0.083,0.1105 -0.332,0.4142 0.249,0.9941 0.581,0.5799 0.027,-0.0276 0.055,-0.0553 0.083,-0.1105 -0.166,0.0276 -0.332,0.0552 -0.498,0.0552 -0.056,-0.2485 -0.139,-0.2485 -0.249,0.0277 -0.139,0.1933 -0.277,0.3866 -0.443,0.5799 -0.332,0.4142 -0.637,0.8284 -0.996,1.2426 -0.554,0.6904 -1.163,1.3531 -1.744,2.0159 -1.217,1.3254 -2.49,2.5681 -3.791,3.7831 -2.822,2.651 -5.7,5.2193 -8.55,7.8423 -0.415,0.387 0.194,0.967 0.581,0.608 z"
             fill="#000000"
             id="path1117" /><path
             d="m 152.812,93.4007 c 0.194,-1.3255 0.387,-2.6509 0.581,-3.9764 0.138,-0.9942 0.249,-2.0987 0.802,-2.9824 1.273,-2.0434 3.072,-0.5799 4.04,0.8008 0.415,0.5799 0.803,1.2151 1.218,1.795 0.221,0.3313 1.3,1.5188 1.162,1.933 0.138,-0.1105 0.277,-0.1933 0.388,-0.3038 -0.056,0 -0.083,0 -0.139,0 -0.526,-0.0276 -0.526,0.8008 0,0.8284 0.056,0 0.083,0 0.139,0 0.193,0 0.359,-0.138 0.387,-0.3037 0.194,-0.6904 -0.277,-1.1046 -0.637,-1.6569 -0.691,-1.0217 -1.355,-2.0711 -2.075,-3.0652 -0.747,-1.0217 -1.715,-2.0158 -3.099,-1.8778 -1.328,0.1381 -2.131,1.1599 -2.546,2.3473 -0.692,1.9606 -0.747,4.1974 -1.051,6.2408 -0.056,0.5247 0.747,0.7456 0.83,0.2209 z"
             fill="#000000"
             id="path1119" /><path
             d="m 154.112,90.2804 c 0.748,1.4636 1.993,2.9548 3.764,3.0652 1.466,0.1105 2.85,-0.718 3.237,-2.1539 0.139,-0.5247 -0.664,-0.7456 -0.802,-0.2209 -0.36,1.3255 -1.827,1.8225 -3.044,1.4083 -1.162,-0.4142 -1.909,-1.4359 -2.435,-2.4853 -0.249,-0.4971 -0.969,-0.0828 -0.72,0.3866 z"
             fill="#000000"
             id="path1121" /><path
             d="m 155.136,84.8956 c 0.139,-1.3531 1.688,-1.7121 2.74,-1.3531 1.107,0.359 1.964,1.3531 2.739,2.1539 0.609,0.6352 1.799,1.5188 1.965,2.4025 0.221,1.1874 -1.273,1.9882 -2.269,2.292 -0.498,0.138 -0.305,0.9389 0.221,0.8008 1.218,-0.359 2.989,-1.436 3.182,-2.8719 0.083,-0.5799 -0.276,-0.8837 -0.664,-1.2979 -0.775,-0.8284 -1.522,-1.6292 -2.324,-2.43 -1.079,-1.1046 -2.463,-2.292 -4.123,-2.0159 -1.245,0.1933 -2.159,1.0217 -2.297,2.292 -0.055,0.5523 0.775,0.5523 0.83,0.0276 z"
             fill="#000000"
             id="path1123" /><path
             d="m 156.63,82.8521 c 0.388,-0.4418 0.582,-1.0217 0.941,-1.4635 0.886,-1.1046 2.269,-0.0829 3.182,0.5799 1.771,1.2426 3.653,3.507 2.048,5.6609 -0.304,0.4418 0.415,0.856 0.72,0.4142 1.715,-2.3196 0.027,-4.9982 -1.937,-6.4894 -0.914,-0.6903 -2.297,-1.933 -3.542,-1.574 -1.107,0.3038 -1.301,1.574 -1.993,2.3196 -0.359,0.359 0.222,0.9389 0.581,0.5523 z"
             fill="#000000"
             id="path1125" /><path
             d="m 159.425,80.3391 c 0.969,-1.1874 2.242,-2.43 3.736,-1.1874 0.996,0.8008 1.632,1.933 1.992,3.1204 0.166,0.4971 0.941,0.3038 0.803,-0.2209 -0.471,-1.6016 -1.55,-3.4518 -3.155,-4.1145 -1.632,-0.6628 -2.988,0.6351 -3.957,1.8225 -0.332,0.3866 0.249,0.9941 0.581,0.5799 z"
             fill="#000000"
             id="path1127" /><path
             d="m 165.541,80.4496 c 1.715,-1.4636 3.431,-2.9271 5.146,-4.3631 0.415,-0.3589 -0.193,-0.9389 -0.581,-0.5799 -1.715,1.4636 -3.431,2.9272 -5.147,4.3631 -0.415,0.359 0.194,0.9389 0.582,0.5799 z"
             fill="#000000"
             id="path1129" /><path
             d="m 171.656,83.9842 c 1.633,-1.1874 3.21,-2.4576 4.676,-3.8383 0.388,-0.359 -0.193,-0.9389 -0.581,-0.5799 -1.439,1.3254 -2.933,2.5681 -4.51,3.7003 -0.443,0.3037 -0.028,1.0217 0.415,0.7179 z"
             fill="#000000"
             id="path1131" /><path
             d="m 184.08,81.9132 c 9.231,0 16.714,-7.4675 16.714,-16.6791 0,-9.2116 -7.483,-16.679 -16.714,-16.679 -9.23,0 -16.713,7.4674 -16.713,16.679 0,9.2116 7.483,16.6791 16.713,16.6791 z"
             stroke="#000000"
             stroke-width="3"
             stroke-miterlimit="10"
             id="path1133" /><path
             d="m 173.953,67.2776 c 6.143,-3.9213 12.424,-7.6216 18.844,-11.101 0.47,-0.2485 0.055,-0.9665 -0.415,-0.718 -6.42,3.4518 -12.701,7.1522 -18.844,11.101 -0.443,0.3038 -0.028,1.0217 0.415,0.718 z"
             fill="#000000"
             id="path1135" /><path
             d="m 174.644,74.5125 c 5.064,-3.7003 10.183,-7.2625 15.413,-10.7419 0.443,-0.3038 0.028,-1.0218 -0.415,-0.718 -5.202,3.4794 -10.349,7.0693 -15.413,10.742 -0.442,0.3037 -0.027,1.0217 0.415,0.7179 z"
             fill="#000000"
             id="path1137" /><g
             aria-label="ONE"
             transform="matrix(0.87506345,0,0,1.0611024,28.208917,-10.137432)"
             id="text2376"
             style="font-weight:bold;font-size:14.4162px;font-family:Elephant;-inkscape-font-specification:'Elephant Bold';fill:#06f3af;stroke-width:1.27703;stroke-linecap:round;stroke-linejoin:round;stroke-miterlimit:0.6"><path
               d="m 207.7989,135.66884 q 0,1.89353 -1.18962,3.12538 -1.18962,1.22482 -3.09723,1.22482 -1.90057,0 -3.08315,-1.23185 -1.18258,-1.23186 -1.18258,-3.11835 v -1.84426 q 0,-1.87946 1.17554,-3.11131 1.18258,-1.23889 3.07611,-1.23889 1.90762,0 3.10427,1.23889 1.19666,1.23185 1.19666,3.11131 z m -2.0484,-1.85834 q 0,-1.19666 -0.59832,-1.96393 -0.59833,-0.76727 -1.65421,-0.76727 -1.04179,0 -1.62604,0.76727 -0.57721,0.76727 -0.57721,1.96393 v 1.85834 q 0,1.21777 0.58425,1.98504 0.58425,0.76727 1.63308,0.76727 1.05588,0 1.64717,-0.76727 0.59128,-0.76727 0.59128,-1.98504 z"
               style="font-family:Roboto;-inkscape-font-specification:'Roboto Bold'"
               id="path3013" /><path
               d="m 217.71004,139.87122 h -2.05544 l -4.13198,-6.91246 -0.0422,0.007 v 6.90542 h -2.05543 V 129.6222 h 2.05543 l 4.13199,6.90541 0.0422,-0.007 v -6.89838 h 2.05544 z"
               style="font-family:Roboto;-inkscape-font-specification:'Roboto Bold'"
               id="path3015" /><path
               d="m 225.45311,135.36615 h -3.80114 v 2.92829 h 4.51914 v 1.57678 h -6.57458 V 129.6222 h 6.5605 v 1.58381 h -4.50506 v 2.57633 h 3.80114 z"
               style="font-family:Roboto;-inkscape-font-specification:'Roboto Bold'"
               id="path3017" /></g></g></g></g></g></svg>
