<?xml version="1.0" encoding="UTF-8" standalone="no"?>
<!-- Created with Inkscape (http://www.inkscape.org/) -->

<svg
   width="8.4666748mm"
   height="8.4666748mm"
   viewBox="0 0 8.4666748 8.4666748"
   version="1.1"
   id="svg5"
   xml:space="preserve"
   xmlns:inkscape="http://www.inkscape.org/namespaces/inkscape"
   xmlns:sodipodi="http://sodipodi.sourceforge.net/DTD/sodipodi-0.dtd"
   xmlns:xlink="http://www.w3.org/1999/xlink"
   xmlns="http://www.w3.org/2000/svg"
   xmlns:svg="http://www.w3.org/2000/svg"><sodipodi:namedview
     id="namedview7"
     pagecolor="#ffffff"
     bordercolor="#000000"
     borderopacity="0.25"
     inkscape:showpageshadow="2"
     inkscape:pageopacity="0.0"
     inkscape:pagecheckerboard="0"
     inkscape:deskcolor="#d1d1d1"
     inkscape:document-units="mm"
     showgrid="false" /><defs
     id="defs2"><linearGradient
       inkscape:collect="always"
       id="linearGradient44244"><stop
         style="stop-color:#06f0af;stop-opacity:1"
         offset="0"
         id="stop44240" /><stop
         style="stop-color:#0c6da0;stop-opacity:1"
         offset="1"
         id="stop44242" /></linearGradient><linearGradient
       inkscape:collect="always"
       id="linearGradient31925"><stop
         style="stop-color:#06f4af;stop-opacity:1"
         offset="0"
         id="stop31921" /><stop
         style="stop-color:#0c679f;stop-opacity:1"
         offset="1"
         id="stop31923" /></linearGradient><linearGradient
       inkscape:collect="always"
       xlink:href="#linearGradient44244"
       id="linearGradient49416"
       gradientUnits="userSpaceOnUse"
       x1="-631.1922"
       y1="-199.44052"
       x2="-634.4613"
       y2="-202.64249"
       gradientTransform="matrix(1.1984163,0,0,1.1984163,125.90876,54.082194)" /><linearGradient
       inkscape:collect="always"
       xlink:href="#linearGradient31925"
       id="linearGradient49418"
       gradientUnits="userSpaceOnUse"
       gradientTransform="matrix(0.17636228,0,0,0.17636228,-518.84103,-87.627805)"
       x1="-637.30579"
       y1="-576.93671"
       x2="-601.03412"
       y2="-541.80219" /></defs><g
     inkscape:label="Camada 1"
     inkscape:groupmode="layer"
     id="layer1"
     transform="translate(632.19325,190.61785)"><circle
       style="fill:url(#linearGradient49418);fill-opacity:1;stroke-width:0.176363;stroke-linecap:round;stroke-linejoin:round;stroke-miterlimit:0.6"
       id="circle49410"
       cx="-627.9599"
       cy="-186.38452"
       r="4.2333331" /><g
       id="g49422"
       transform="matrix(1.0451983,0,0,1.0452079,33.041216,8.7983594)"><rect
         style="fill:#0c6da0;fill-opacity:1;stroke-width:1.19842;stroke-linecap:round;stroke-linejoin:round;stroke-miterlimit:0.6"
         id="rect49412"
         width="3.2871971"
         height="3.2335286"
         x="-634.06055"
         y="-188.35754" /><path
         style="fill:url(#linearGradient49416);fill-opacity:1;stroke-width:0.0084205"
         d="m -633.85703,-184.59124 c -0.20063,-0.0325 -0.34588,-0.10378 -0.47628,-0.23401 -0.11097,-0.11086 -0.18493,-0.24413 -0.21986,-0.39615 -0.0146,-0.0639 -0.0155,-0.1405 -0.0155,-1.52817 v -1.46083 l 0.0223,-0.0805 c 0.0488,-0.17623 0.15378,-0.33341 0.29342,-0.43912 0.0773,-0.0586 0.2029,-0.11901 0.29573,-0.14239 l 0.0791,-0.02 h 1.45688 c 1.38385,0 1.46027,6.6e-4 1.52424,0.0155 0.15201,0.0349 0.28533,0.10881 0.3963,0.21978 0.11098,0.11097 0.18492,0.24425 0.21984,0.39622 0.0146,0.064 0.0156,0.1405 0.0156,1.52817 v 1.46082 l -0.0223,0.0806 c -0.079,0.28556 -0.29367,0.50017 -0.5793,0.57917 l -0.0805,0.0223 -1.44423,6.5e-4 c -0.79435,5.8e-4 -1.45374,-4.9e-4 -1.46533,-0.002 z m 0.90107,-2.04888 v -0.94301 h -0.26947 -0.26948 v 0.94301 0.94301 h 0.26948 0.26947 z m 0.80844,0.35528 v -0.58773 l 0.0216,-0.0434 c 0.0296,-0.0593 0.10822,-0.13053 0.1697,-0.15363 0.0268,-0.01 0.0759,-0.0204 0.10906,-0.0229 0.11013,-0.008 0.18235,0.0242 0.21639,0.0978 0.0177,0.0383 0.0179,0.0461 0.0204,0.66818 l 0.002,0.62937 h 0.26964 0.26965 l -0.004,-0.66304 c -0.004,-0.6335 -0.004,-0.66643 -0.0205,-0.73894 -0.0184,-0.0809 -0.0526,-0.17481 -0.081,-0.22301 -0.0562,-0.0954 -0.14282,-0.17641 -0.23005,-0.21537 -0.0549,-0.0246 -0.15664,-0.0458 -0.2196,-0.0458 -0.14979,1e-4 -0.34882,0.0615 -0.47462,0.14616 l -0.0458,0.0308 -0.002,-0.0884 -0.002,-0.0884 h -0.26919 -0.26919 v 0.94299 0.94301 h 0.26947 0.26947 z m -0.94892,-1.44128 c 0.1516,-0.0767 0.18542,-0.27841 0.067,-0.40021 -0.12096,-0.12451 -0.33017,-0.0883 -0.4085,0.0706 -0.0149,0.0302 -0.0192,0.0531 -0.0189,0.1021 2.7e-4,0.10774 0.0466,0.18173 0.14299,0.22881 0.0447,0.0218 0.0578,0.0243 0.11361,0.0219 0.0464,-9e-4 0.0741,-0.008 0.10379,-0.0234 z"
         id="path49414" /></g></g></svg>
