<?xml version="1.0" encoding="UTF-8" standalone="no"?>
<!-- Created with Inkscape (http://www.inkscape.org/) -->

<svg
   width="33.866669mm"
   height="33.866669mm"
   viewBox="0 0 33.866669 33.866669"
   version="1.1"
   id="svg5"
   xml:space="preserve"
   xmlns="http://www.w3.org/2000/svg"
   xmlns:svg="http://www.w3.org/2000/svg"><defs
     id="defs2" /><g
     id="layer1"
     transform="translate(48.102212,-136.76149)"><path
       style="fill:#ffffff;stroke-width:0.0352931"
       d="m -32.290204,170.59348 c -2.89911,-0.18343 -5.82551,-1.17936 -8.27829,-2.81732 -2.47046,-1.64977 -4.44855,-3.90247 -5.77404,-6.57564 -2.56948,-5.182 -2.31107,-11.32833 0.68384,-16.26538 2.28142,-3.76088 5.94694,-6.50342 10.17367,-7.61195 4.71352,-1.23619 9.66913,-0.41258 13.71478,2.27938 1.59067,1.05842 3.01666,2.40748 4.17356,3.94839 1.68881,2.24938 2.80097,4.92722 3.20198,7.70965 0.12907,0.89552 0.15893,1.34901 0.15916,2.41698 2.7e-4,1.07393 -0.0324,1.57799 -0.1589,2.45227 -0.72751,5.02908 -3.691,9.46972 -8.07546,12.10068 -2.92917,1.75768 -6.35567,2.58216 -9.8203,2.36294 z m -3.01831,-15.39866 v -5.50437 l -1.72097,-0.009 -1.72096,-0.009 v 5.52268 5.52269 l 1.72096,-0.009 1.72097,-0.009 z m 5.48944,2.13952 c 0,-2.08983 0.0134,-3.45512 0.0351,-3.57254 0.0594,-0.32196 0.2912,-0.74186 0.55795,-1.01082 0.36644,-0.3695 0.77547,-0.53769 1.30759,-0.53769 0.82061,0 1.35644,0.46329 1.60256,1.3856 0.0769,0.288 0.0776,0.31876 0.0887,3.70417 l 0.0112,3.41377 h 1.71247 1.71247 l -0.013,-3.74897 c -0.0142,-4.08807 -0.003,-3.85707 -0.22153,-4.6821 -0.47833,-1.80795 -1.8468,-2.85926 -3.72227,-2.85959 -1.35189,-2.7e-4 -2.56643,0.60966 -3.34074,1.67762 -0.0414,0.0571 -0.0875,0.0923 -0.1023,0.0781 -0.0148,-0.0142 -0.0607,-0.35556 -0.1019,-0.75861 l -0.0749,-0.73282 -1.49359,-0.009 -1.4936,-0.009 0.0209,0.27384 c 0.0115,0.15061 0.0292,2.61584 0.0394,5.4783 0.0102,2.86244 0.0254,5.22429 0.0337,5.24855 0.0119,0.0345 0.38957,0.0441 1.7285,0.0441 h 1.71325 z m -6.78989,-9.05503 c 0.37351,-0.0711 0.68245,-0.22936 0.92905,-0.47585 0.24247,-0.24235 0.37133,-0.49139 0.44755,-0.86497 0.15053,-0.7378 -0.2328,-1.54413 -0.87729,-1.84536 -0.3131,-0.14634 -0.52506,-0.19017 -0.911,-0.18838 -0.57933,0.003 -0.96672,0.15234 -1.32536,0.51203 -0.33323,0.33419 -0.47254,0.68313 -0.47417,1.18769 -0.002,0.49816 0.14919,0.87574 0.48307,1.20946 0.42991,0.42969 1.04531,0.59541 1.72815,0.46538 z"
       id="path316" /></g></svg>
